<svg width="100" height="100" viewBox="0 0 100 100" fill="none" xmlns="http://www.w3.org/2000/svg">
<circle cx="50" cy="50" r="50" fill="#5051DB" fill-opacity="0.26"/>
<path d="M76 60.0003H71V51.1423C71 41.7553 67.345 32.9303 60.707 26.2933C60.52 26.1053 60.266 26.0003 60 26.0003H59V23.1473L61.958 13.2873C62.062 12.9373 61.969 12.5583 61.712 12.2973C61.455 12.0373 61.073 11.9383 60.726 12.0383L54.1 13.9323L50.448 12.1063C50.167 11.9653 49.835 11.9653 49.553 12.1063L45.9 13.9323L39.274 12.0393C38.926 11.9403 38.545 12.0383 38.288 12.2983C38.031 12.5583 37.937 12.9383 38.042 13.2883L41 23.1473V26.0003H40C39.734 26.0003 39.48 26.1053 39.293 26.2933C32.931 32.6563 29.314 41.0433 29.028 50.0003H28H20C19.447 50.0003 19 50.4483 19 51.0003V73.0003C19 73.5523 19.447 74.0003 20 74.0003H28C28.553 74.0003 29 73.5523 29 73.0003V72.0003H34C34.553 72.0003 35 71.5523 35 71.0003V70.0003H41.697L47.445 73.8323C47.611 73.9423 47.804 74.0003 48 74.0003C48.071 74.0003 48.143 73.9923 48.214 73.9773L80.214 66.9773C80.673 66.8763 81 66.4703 81 66.0003V65.0003C81 62.2433 78.757 60.0003 76 60.0003ZM45.726 15.9613C45.967 16.0303 46.225 16.0063 46.448 15.8943L50 14.1183L53.553 15.8943C53.776 16.0063 54.033 16.0303 54.275 15.9613L59.517 14.4633L57.256 22.0003H54.22L54.981 18.1963L53.02 17.8043L52.18 22.0003H47.82L46.98 17.8043L45.02 18.1963L45.78 22.0003H42.744L40.483 14.4643L45.726 15.9613ZM43 24.0003H57V26.0003H43V24.0003ZM27 72.0003H21V52.0003H27V71.0003V72.0003ZM33 70.0003H29V52.0003H33V70.0003ZM31.028 50.0003C31.309 41.7133 34.612 33.9483 40.418 28.0003H59.582C65.659 34.2253 69 42.4263 69 51.1423V60.0003H52.895C52.782 59.5573 52.578 59.1393 52.277 58.7883L46.758 52.3503C46.569 52.1273 46.292 52.0003 46 52.0003H35V51.0003C35 50.4483 34.553 50.0003 34 50.0003H31.028ZM79 65.1953L48.201 71.9323L42.555 68.1683C42.391 68.0593 42.197 68.0003 42 68.0003H35V54.0003H45.54L50.76 60.0893C50.914 60.2703 51 60.5013 51 60.7393V62.0003C51 62.5513 50.552 63.0003 50 63.0003H48.828C48.565 63.0003 48.307 62.8933 48.121 62.7073L43.707 58.2933L42.293 59.7073L46.707 64.1213C47.273 64.6883 48.027 65.0003 48.828 65.0003H50C51.654 65.0003 53 63.6543 53 62.0003H76C77.654 62.0003 79 63.3463 79 65.0003V65.1953Z" fill="#5051DB"/>
<path d="M50 52.0003C56.065 52.0003 61 47.0653 61 41.0003C61 34.9353 56.065 30.0003 50 30.0003C43.935 30.0003 39 34.9353 39 41.0003C39 47.0653 43.935 52.0003 50 52.0003ZM59 41.0003C59 45.6243 55.493 49.4423 51 49.9413V47.8163C52.161 47.4023 53 46.3023 53 45.0003V43.0003C53 41.3463 51.654 40.0003 50 40.0003C49.448 40.0003 49 39.5513 49 39.0003V37.0003C49 36.4493 49.448 36.0003 50 36.0003C50.552 36.0003 51 36.4493 51 37.0003V38.0003H53V37.0003C53 35.6983 52.161 34.5983 51 34.1843V32.0593C55.493 32.5583 59 36.3763 59 41.0003ZM49 32.0593V34.1843C47.839 34.5983 47 35.6983 47 37.0003V39.0003C47 40.6543 48.346 42.0003 50 42.0003C50.552 42.0003 51 42.4493 51 43.0003V45.0003C51 45.5513 50.552 46.0003 50 46.0003C49.448 46.0003 49 45.5513 49 45.0003V44.0003H47V45.0003C47 46.3023 47.839 47.4023 49 47.8163V49.9413C44.507 49.4413 41 45.6243 41 41.0003C41 36.3763 44.507 32.5583 49 32.0593Z" fill="#5051DB"/>
<path d="M57 52.0003C55.346 52.0003 54 53.3463 54 55.0003C54 56.6543 55.346 58.0003 57 58.0003C58.654 58.0003 60 56.6543 60 55.0003C60 53.3463 58.654 52.0003 57 52.0003ZM57 56.0003C56.448 56.0003 56 55.5513 56 55.0003C56 54.4493 56.448 54.0003 57 54.0003C57.552 54.0003 58 54.4493 58 55.0003C58 55.5513 57.552 56.0003 57 56.0003Z" fill="#5051DB"/>
<path d="M64 54.0003C66.206 54.0003 68 52.2063 68 50.0003C68 47.7943 66.206 46.0003 64 46.0003C61.794 46.0003 60 47.7943 60 50.0003C60 52.2063 61.794 54.0003 64 54.0003ZM64 48.0003C65.103 48.0003 66 48.8973 66 50.0003C66 51.1033 65.103 52.0003 64 52.0003C62.897 52.0003 62 51.1033 62 50.0003C62 48.8973 62.897 48.0003 64 48.0003Z" fill="#5051DB"/>
<path d="M23 44.0003C25.206 44.0003 27 42.2063 27 40.0003C27 37.7943 25.206 36.0003 23 36.0003C20.794 36.0003 19 37.7943 19 40.0003C19 42.2063 20.794 44.0003 23 44.0003ZM23 38.0003C24.103 38.0003 25 38.8973 25 40.0003C25 41.1033 24.103 42.0003 23 42.0003C21.897 42.0003 21 41.1033 21 40.0003C21 38.8973 21.897 38.0003 23 38.0003Z" fill="#5051DB"/>
<path d="M27 35.0003C30.309 35.0003 33 32.3093 33 29.0003C33 25.6913 30.309 23.0003 27 23.0003C23.691 23.0003 21 25.6913 21 29.0003C21 32.3093 23.691 35.0003 27 35.0003ZM27 25.0003C29.206 25.0003 31 26.7943 31 29.0003C31 31.2063 29.206 33.0003 27 33.0003C24.794 33.0003 23 31.2063 23 29.0003C23 26.7943 24.794 25.0003 27 25.0003Z" fill="#5051DB"/>
<path d="M73 29.0003C73 31.2063 74.794 33.0003 77 33.0003C79.206 33.0003 81 31.2063 81 29.0003C81 26.7943 79.206 25.0003 77 25.0003C74.794 25.0003 73 26.7943 73 29.0003ZM77 27.0003C78.103 27.0003 79 27.8973 79 29.0003C79 30.1033 78.103 31.0003 77 31.0003C75.897 31.0003 75 30.1033 75 29.0003C75 27.8973 75.897 27.0003 77 27.0003Z" fill="#5051DB"/>
<path d="M70 24.0003C73.309 24.0003 76 21.3093 76 18.0003C76 14.6913 73.309 12.0003 70 12.0003C66.691 12.0003 64 14.6913 64 18.0003C64 21.3093 66.691 24.0003 70 24.0003ZM70 14.0003C72.206 14.0003 74 15.7943 74 18.0003C74 20.2063 72.206 22.0003 70 22.0003C67.794 22.0003 66 20.2063 66 18.0003C66 15.7943 67.794 14.0003 70 14.0003Z" fill="#5051DB"/>
</svg>
