<svg width="100" height="100" viewBox="0 0 100 100" fill="none" xmlns="http://www.w3.org/2000/svg">
<circle cx="50" cy="50" r="50" fill="#BB6BD9" fill-opacity="0.26"/>
<path d="M29.5042 52.1167H19C18.4478 52.1167 18 52.5644 18 53.1167V71.9927C18 72.5449 18.4478 72.9927 19 72.9927H29.5042C30.0564 72.9927 30.5042 72.5449 30.5042 71.9927V70.8013H33.0198L46.2815 78.1055C46.772 78.3755 47.3142 78.5122 47.8594 78.5122C48.2588 78.5122 48.6599 78.4385 49.0427 78.2905L80.1384 66.2441C81.5156 65.7109 82.4409 64.3604 82.4409 62.8833C82.4409 61.8267 81.98 60.8276 81.1765 60.1416C80.3728 59.4561 79.3145 59.1553 78.2515 59.3267L60.24 62.5464C60.1069 60.6226 58.4993 59.0982 56.5422 59.0982H46.1309L41.1589 55.0186C40.9802 54.8716 40.7561 54.7915 40.5247 54.7915H30.5042V53.1167C30.5042 52.5644 30.0564 52.1167 29.5042 52.1167ZM28.5042 70.9927H20V54.1167H28.5042C28.5042 60.1141 28.5042 64.5835 28.5042 70.9927ZM40.167 56.7915L45.1389 60.8711C45.3176 61.0181 45.5417 61.0981 45.7732 61.0981H56.5422C57.4834 61.0981 58.249 61.8638 58.249 62.8052C58.249 63.7461 57.4834 64.5117 56.5422 64.5117H47.3679C46.8157 64.5117 46.3679 64.9595 46.3679 65.5117C46.3679 66.064 46.8157 66.5117 47.3679 66.5117H56.5422C57.9082 66.5117 59.1042 65.769 59.7471 64.666L78.5845 61.2988C79.0495 61.2256 79.5202 61.3579 79.8779 61.6631C80.2358 61.9683 80.4409 62.4131 80.4409 62.8833C80.4409 63.5405 80.029 64.1416 79.416 64.3789L48.3203 76.4253C47.9683 76.5605 47.5769 76.5347 47.2463 76.3535L33.7593 68.9253C33.6116 68.8437 33.4456 68.8013 33.2769 68.8013H30.5042V56.7915H40.167Z" fill="#BB6BD9"/>
<path d="M42.039 32.0508C42.0447 32.0598 42.0417 32.0713 42.0481 32.0801L60.0634 56.7651C60.2538 57.0219 60.6602 57.0494 60.8701 56.7659L60.8711 56.7651L60.8718 56.7642C60.8789 56.7545 60.8864 56.7455 60.8928 56.7353L78.8425 32.1556C78.9458 32.064 79.0139 31.9342 79.0139 31.7852C79.0139 31.6187 78.9324 31.4707 78.8069 31.3799L70.6604 21.6328C70.5624 21.5154 70.377 21.4536 70.2768 21.4536H50.6692C50.1267 21.4536 50.2863 21.8764 42.0683 31.4644C42.0603 31.4741 42.061 31.4875 42.0537 31.4977C41.9573 31.631 41.9148 31.8545 42.039 32.0508ZM66.2214 32.2851L60.4712 54.4766L54.7239 32.2851H66.2214ZM54.9995 31.2851L60.4729 22.8705L65.9458 31.2851H54.9995ZM67.2546 32.2851H77.5097L61.6145 54.0513L67.2546 32.2851ZM67.57 31.2851L70.4597 22.9518L77.4241 31.2851H67.57ZM66.7297 30.6562L61.3945 22.4536H69.5739L66.7297 30.6562ZM54.2156 30.6562L51.3716 22.4536H59.5513L54.2156 30.6562ZM53.3755 31.2851H43.5217L50.4863 22.9521L53.3755 31.2851ZM53.6906 32.2851L59.3318 54.066L43.4358 32.2851H53.6906Z" fill="#BB6BD9"/>
<path d="M60.9729 17.1352V14.5C60.9729 14.2236 60.749 14 60.4729 14C60.1968 14 59.9729 14.2236 59.9729 14.5V17.1352C59.9729 17.4116 60.1968 17.6352 60.4729 17.6352C60.749 17.6352 60.9729 17.4116 60.9729 17.1352Z" fill="#BB6BD9"/>
<path d="M53.0933 18.936C53.3526 18.8418 53.4864 18.5547 53.3919 18.2954L52.4905 15.8193C52.3963 15.5596 52.1099 15.4272 51.8496 15.5205C51.5904 15.6147 51.4566 15.9019 51.5511 16.1611L52.4524 18.6372C52.5461 18.8952 52.8317 19.0308 53.0933 18.936Z" fill="#BB6BD9"/>
<path d="M46.6035 22.6831C46.8152 22.5058 46.8428 22.1904 46.6653 21.979L44.9712 19.96C44.7937 19.748 44.4783 19.7217 44.2669 19.8984C44.0552 20.0757 44.0276 20.3911 44.2051 20.6025L45.8992 22.6216C46.0762 22.8331 46.392 22.861 46.6035 22.6831Z" fill="#BB6BD9"/>
<path d="M75.0467 22.6216L76.7405 20.6025C76.918 20.3911 76.8904 20.0757 76.6787 19.8984C76.4678 19.7212 76.1521 19.7476 75.9744 19.96L74.2805 21.979C74.1031 22.1904 74.1306 22.5059 74.3423 22.6831C74.5536 22.8607 74.8694 22.8334 75.0467 22.6216Z" fill="#BB6BD9"/>
<path d="M68.4937 18.6372L69.3948 16.1611C69.489 15.9019 69.3553 15.6147 69.0957 15.5205C68.8365 15.4272 68.5496 15.5596 68.4549 15.8193L67.5537 18.2954C67.4595 18.5547 67.5933 18.8418 67.8528 18.936C68.1128 19.0306 68.3994 18.8962 68.4937 18.6372Z" fill="#BB6BD9"/>
</svg>
