<svg width="131" height="196" viewBox="0 0 131 196" fill="none" xmlns="http://www.w3.org/2000/svg">
<rect width="131" height="196" fill="#140FF5" fill-opacity="0.26"/>
<path d="M113.896 100.591L102.446 71.9156C102.15 71.1748 101.315 70.8119 100.571 71.0974L88.3464 75.8118C87.9849 75.951 87.6944 76.2287 87.5382 76.5838C87.3827 76.9382 87.3741 77.3402 87.5162 77.701L88.2631 79.6024L82.703 81.0987L74.522 78.3487C70.8303 77.1073 66.8548 77.2618 63.2923 78.695C62.5182 78.106 61.584 77.7117 60.4866 77.5462C58.8019 77.2912 56.9767 77.6577 55.3495 78.5774L48.3503 82.5291L45.4223 81.0889L46.508 78.924C46.6813 78.5774 46.7097 78.1762 46.5861 77.809C46.4633 77.4411 46.1976 77.1385 45.8503 76.9674L34.1026 71.1819C33.3867 70.8282 32.5245 71.1187 32.163 71.8275L18.1581 99.3663C17.7945 100.082 18.0793 100.957 18.7952 101.322L30.6211 107.339C30.8277 107.444 31.0536 107.497 31.2809 107.497C31.4336 107.497 31.587 107.473 31.7354 107.424C32.1033 107.303 32.4073 107.04 32.5813 106.694L33.4765 104.909L37.4483 107.383C37.3024 107.938 37.2651 108.519 37.3568 109.103C37.5322 110.221 38.1359 111.203 39.0571 111.868L40.0791 112.606C40.8305 113.149 41.7034 113.41 42.5691 113.41C42.5744 113.41 42.5794 113.408 42.5847 113.408C42.5984 113.658 42.614 113.908 42.6671 114.153C42.9249 115.343 43.6195 116.352 44.6231 116.993C45.3596 117.463 46.1891 117.686 47.0201 117.686C47.1269 117.686 47.2315 117.653 47.3382 117.646C47.3454 117.743 47.3355 117.84 47.3489 117.937C47.5115 119.115 48.1159 120.152 49.0513 120.855C49.8368 121.446 50.7644 121.73 51.6962 121.73C52.1784 121.73 52.6543 121.626 53.119 121.477C53.4345 122.239 53.9511 122.932 54.6429 123.452C55.5008 124.097 56.4994 124.411 57.4632 124.411C58.6876 124.411 59.8559 123.904 60.6066 122.922L61.3744 121.918C62.9821 123.239 65.8891 125.23 68.831 125.23C69.2173 125.23 69.6044 125.195 69.9886 125.12C71.792 124.769 73.2212 123.624 74.2459 121.711C74.6565 121.797 75.0728 121.858 75.5007 121.858C75.5078 121.858 75.5149 121.858 75.5212 121.858C77.8818 121.85 79.9598 120.443 81.7146 117.707C82.1766 117.812 82.6414 117.887 83.1107 117.887C83.2293 117.887 83.3493 117.883 83.4686 117.875C85.832 117.727 87.7799 116.165 89.2777 113.264C89.5408 113.314 89.804 113.362 90.0616 113.372C90.1255 113.375 90.1894 113.375 90.2527 113.375C91.6418 113.375 92.8606 112.791 93.7853 111.677C95.2221 109.948 95.8712 108.226 95.7143 106.558C95.6791 106.183 95.602 105.814 95.4858 105.455L98.108 104.666L98.8676 106.6C99.009 106.961 99.2888 107.25 99.6446 107.403C99.8286 107.483 100.025 107.522 100.221 107.522C100.405 107.522 100.589 107.488 100.763 107.418L113.086 102.48C113.831 102.182 114.193 101.336 113.896 100.591ZM30.6367 104.083L21.4109 99.3883L34.1054 74.4262L43.2509 78.9297L42.1612 81.1027C42.1607 81.1037 42.1598 81.1041 42.1593 81.1051C42.1589 81.106 42.1591 81.107 42.1586 81.1079L30.6367 104.083ZM40.7602 109.51C40.4725 109.302 40.285 108.997 40.2304 108.651C40.1764 108.308 40.2609 107.964 40.4683 107.682C40.7296 107.325 41.138 107.136 41.5528 107.136C41.8284 107.136 42.1068 107.219 42.3461 107.393L43.3674 108.129C43.6543 108.336 43.8425 108.642 43.8972 108.988C43.9512 109.331 43.8667 109.676 43.6593 109.958C43.2254 110.55 42.3823 110.68 41.7822 110.248L40.7602 109.51ZM46.1884 114.541C45.7466 114.258 45.5755 113.839 45.5101 113.537C45.3979 113.02 45.5123 112.448 45.8241 111.968L46.6479 110.699C47.2481 109.777 48.3901 109.444 49.1926 109.958C49.6351 110.24 49.8056 110.659 49.8716 110.961C49.9838 111.478 49.8695 112.051 49.5584 112.53L48.7331 113.799C48.1351 114.721 46.991 115.053 46.1884 114.541ZM50.7999 118.53C50.4888 118.297 50.2864 117.945 50.231 117.541C50.1656 117.067 50.2999 116.584 50.6088 116.18L53.3737 112.564C53.9724 111.781 55.0349 111.574 55.7409 112.106C56.052 112.34 56.2537 112.691 56.3091 113.095C56.3744 113.569 56.2402 114.052 55.9319 114.456L55.7384 114.709C55.7377 114.71 55.7366 114.711 55.7359 114.712L53.5413 117.582C53.5409 117.583 53.5405 117.583 53.5401 117.584L53.1663 118.073C52.5676 118.856 51.503 119.06 50.7999 118.53ZM56.3907 121.127C56.0065 120.838 55.7537 120.438 55.6976 120.029C55.672 119.845 55.6786 119.577 55.8521 119.35L57.9625 116.589L58.047 116.479C58.2281 116.243 58.5292 116.125 58.8673 116.125C59.2202 116.125 59.613 116.253 59.9518 116.508C60.336 116.797 60.5888 117.196 60.645 117.605C60.6705 117.789 60.6641 118.058 60.4901 118.285L58.2955 121.155C57.9269 121.638 57.0541 121.624 56.3907 121.127ZM91.5474 109.819C91.1589 110.287 90.7278 110.494 90.1724 110.465C87.1831 110.352 82.0631 104.669 79.5375 101.113C79.0731 100.457 78.164 100.305 77.5099 100.768C76.855 101.233 76.7002 102.141 77.1654 102.796C77.7602 103.635 82.1099 109.618 86.5682 112.192C85.606 113.96 84.5048 114.895 83.2875 114.972C79.8763 115.216 75.3039 109.176 73.9857 107.051C73.5625 106.368 72.6676 106.157 71.9836 106.58C71.3011 107.003 71.0902 107.899 71.5121 108.581C71.9614 109.308 75.0662 114.175 78.984 116.566C77.8834 118.135 76.7203 118.943 75.5141 118.949C75.5099 118.949 75.5056 118.949 75.5007 118.949C72.5873 118.949 69.4631 114.675 68.5036 113.026C68.1001 112.331 67.2081 112.093 66.5164 112.499C65.8218 112.902 65.5845 113.79 65.9872 114.485C66.3022 115.029 68.4578 118.602 71.5395 120.566C70.9671 121.531 70.2766 122.1 69.4354 122.265C67.3839 122.663 64.676 120.867 63.1028 119.562C63.4841 118.857 63.6416 118.044 63.527 117.208C63.3658 116.037 62.7003 114.934 61.7003 114.182C60.9406 113.611 60.0706 113.308 59.2114 113.244C59.2078 113.062 59.2163 112.88 59.1911 112.698C59.0292 111.52 58.4248 110.484 57.4894 109.781C56.0102 108.669 54.0254 108.645 52.4632 109.559C52.1149 108.713 51.5311 107.998 50.758 107.505C49.4099 106.644 47.7494 106.612 46.3368 107.266C46.0369 106.684 45.6181 106.167 45.0698 105.77L44.0485 105.034C42.5481 103.949 40.5736 104.003 39.1301 105.004L34.786 102.298L44.118 83.6897L47.7551 85.4787C47.9583 85.5781 48.1777 85.6278 48.3972 85.6278C48.6443 85.6278 48.8908 85.5646 49.1124 85.4396L56.7799 81.1101C57.8446 80.5092 59.0072 80.2671 60.0526 80.4226C60.0535 80.4228 60.0541 80.4231 60.055 80.4233C57.6803 82.0888 55.8637 84.349 54.8787 86.8927C53.0165 91.7037 55.2657 94.2904 56.7288 94.9928C58.3524 95.7513 59.8921 95.845 61.3026 95.2719C63.4802 94.3898 64.7209 92.1476 65.3793 90.4218C65.5895 89.8692 66.01 89.4289 66.5611 89.1832C67.1776 88.9076 67.88 88.9204 68.4872 89.2187L77.3323 93.5681C80.8934 95.3195 84.1021 97.6469 86.8713 100.487C88.3216 101.974 89.9039 103.428 91.5737 104.806C92.3322 105.432 92.7512 106.113 92.818 106.83C92.8997 107.7 92.4728 108.705 91.5474 109.819ZM93.7982 102.926C93.6714 102.806 93.5647 102.678 93.4259 102.563C91.8364 101.251 90.3315 99.8692 88.9537 98.4558C85.953 95.3784 82.475 92.8557 78.6164 90.9573L69.7706 86.6079C68.3878 85.9275 66.7855 85.8963 65.3757 86.5262C64.113 87.0894 63.1485 88.1051 62.6606 89.3863C62.2905 90.3565 61.4809 92.061 60.211 92.5752C59.5668 92.8351 58.8303 92.7641 58.0086 92.3806C57.8282 92.2812 56.2885 91.3096 57.5917 87.9431C58.483 85.6413 60.2579 83.6193 62.5902 82.2493C65.9205 80.2912 69.9339 79.8743 73.5944 81.1058L82.1924 83.9964C82.4651 84.0873 82.7584 84.0973 83.034 84.0227L89.3334 82.3273L97.0409 101.949L93.7982 102.926ZM101.039 104.173L90.759 77.9993L100.277 74.3289L110.655 100.32L101.039 104.173Z" fill="#140FF5"/>
<path d="M28.952 95.9229C28.4136 95.6899 27.7737 95.8213 27.3668 96.2283C27.0905 96.5046 26.9449 96.8831 26.9449 97.261C26.9449 97.6395 27.0905 98.0173 27.3668 98.2936C27.643 98.5557 28.0209 98.7155 28.3994 98.7155C28.7773 98.7155 29.1558 98.5557 29.4172 98.2936C29.6934 98.0173 29.854 97.6395 29.854 97.261C29.854 96.8831 29.6934 96.5046 29.4172 96.2283C29.2865 96.0976 29.1267 95.9953 28.952 95.9229Z" fill="#140FF5"/>
<path d="M104.341 98.7155C104.718 98.7155 105.097 98.5557 105.358 98.2936C105.635 98.0173 105.795 97.6395 105.795 97.261C105.795 96.8831 105.635 96.5046 105.358 96.2283C104.966 95.8213 104.311 95.6899 103.788 95.9229C103.598 95.9953 103.439 96.0976 103.308 96.2283C103.032 96.5046 102.886 96.8831 102.886 97.261C102.886 97.6395 103.032 98.0173 103.308 98.2936C103.584 98.5557 103.962 98.7155 104.341 98.7155Z" fill="#140FF5"/>
</svg>
