<svg width="131" height="196" viewBox="0 0 131 196" fill="none" xmlns="http://www.w3.org/2000/svg">
<rect width="131" height="196" fill="#140FF5" fill-opacity="0.26"/>
<path d="M36.6056 108.645C36.5803 108.663 36.5532 108.675 36.5294 108.695C36.4342 108.776 36.3566 108.872 36.2952 108.979C36.2919 108.985 36.2862 108.988 36.283 108.994L31.0422 118.644C30.9034 118.899 30.8754 119.201 30.9643 119.477C31.0532 119.754 31.2507 119.982 31.5121 120.11L36.1498 122.365V134.852C36.1498 135.263 36.3858 135.637 36.7559 135.813L65.1052 149.334C65.1123 149.337 65.1205 149.335 65.1275 149.339C65.2613 149.399 65.4073 149.437 65.5636 149.437C65.72 149.437 65.8661 149.399 65.9998 149.339C66.0069 149.335 66.015 149.337 66.022 149.334L94.3719 135.813C94.7421 135.637 94.978 135.262 94.978 134.852V122.322L99.6084 120.112C99.872 119.986 100.072 119.758 100.163 119.481C100.252 119.203 100.225 118.9 100.086 118.644L94.8448 108.994C94.8416 108.988 94.8359 108.985 94.8326 108.979C94.7711 108.872 94.6934 108.776 94.598 108.695C94.5746 108.675 94.5478 108.663 94.5229 108.645C94.4736 108.61 94.4275 108.571 94.3717 108.544L75.6471 99.6091C76.0385 95.4532 77.7855 91.403 80.6649 88.0441C83.9267 84.2381 85.6222 79.3752 85.4383 74.3508C85.0687 64.2733 76.9035 55.883 66.8489 55.2493C55.2992 54.5275 45.6755 63.7041 45.6755 75.0974C45.6755 79.8214 47.3607 84.4019 50.4213 87.9954C53.322 91.402 55.0826 95.4687 55.4786 99.6099L36.756 108.544C36.7005 108.571 36.6547 108.61 36.6056 108.645ZM71.0275 73.2894L72.6072 74.8691L67.6745 100.52H63.4538L58.521 74.8691L60.1007 73.2894L62.8323 76.021L65.5639 73.2894L68.2954 76.021L71.0275 73.2894ZM71.014 102.649C71.4787 102.649 71.8566 103.027 71.8566 103.492C71.8566 103.957 71.4787 104.334 71.014 104.334H60.1141C59.6494 104.334 59.2715 103.957 59.2715 103.492C59.2715 103.027 59.6494 102.649 60.1141 102.649H71.014ZM71.8566 111.12C71.8566 111.585 71.4787 111.963 71.014 111.963H60.1141C59.6494 111.963 59.2715 111.585 59.2715 111.12C59.2715 110.655 59.6494 110.278 60.1141 110.278H71.014C71.4787 110.278 71.8566 110.655 71.8566 111.12ZM68.048 114.092C67.6296 115.037 66.6748 115.701 65.5639 115.701C64.4529 115.701 63.4982 115.037 63.0798 114.092H68.048ZM71.8566 107.306C71.8566 107.77 71.4787 108.148 71.014 108.148H60.1141C59.6494 108.148 59.2715 107.77 59.2715 107.306C59.2715 106.842 59.6494 106.464 60.1141 106.464H71.014C71.4787 106.464 71.8566 106.842 71.8566 107.306ZM57.279 102.649C57.1987 102.918 57.1424 103.197 57.1424 103.492C57.1424 104.221 57.4168 104.881 57.8545 105.399C57.4168 105.917 57.1424 106.577 57.1424 107.306C57.1424 108.036 57.4167 108.695 57.8544 109.213C57.4167 109.731 57.1424 110.391 57.1424 111.12C57.1424 112.758 58.4756 114.092 60.1141 114.092H60.8526C61.3433 116.228 63.2645 117.83 65.5639 117.83C67.8632 117.83 69.7843 116.227 70.2751 114.092H71.0141C72.6526 114.092 73.9859 112.758 73.9859 111.12C73.9859 110.391 73.7115 109.731 73.2739 109.213C73.7115 108.695 73.9859 108.035 73.9859 107.306C73.9859 106.577 73.7114 105.917 73.2738 105.399C73.7114 104.881 73.9859 104.221 73.9859 103.492C73.9859 103.197 73.9296 102.918 73.8493 102.649H75.5634V101.928L91.4367 109.502L68.9104 120.25L65.5639 121.846L60.256 119.314L39.6913 109.502L55.5644 101.928V102.649H57.279V102.649ZM64.0752 123.496L59.6007 131.404L38.2792 121.033V111.193L61.2322 122.139L64.0752 123.496ZM67.07 123.487L92.8491 111.193V120.979L71.2578 131.281L67.0349 123.504L67.07 123.487ZM33.4449 118.682L36.1499 113.7V119.997L33.4449 118.682ZM38.2791 123.401L59.5688 133.756C59.7185 133.828 59.8776 133.863 60.0341 133.863C60.4062 133.863 60.7659 133.667 60.9609 133.323L64.4992 127.069V146.686L38.2791 134.181V123.401ZM92.8492 134.181L66.6284 146.686V127.217L69.8689 133.184C70.0612 133.538 70.4266 133.741 70.805 133.741C70.9589 133.741 71.1154 133.708 71.263 133.637L92.8492 123.337V134.181ZM94.9783 119.963V113.7L97.6792 118.674L94.9783 119.963ZM47.8046 75.0974C47.8041 64.9226 56.4032 56.7211 66.7153 57.3745C75.6918 57.9401 82.9811 65.4316 83.3107 74.4289C83.475 78.9169 81.9618 83.2605 79.0488 86.6585C75.7213 90.5401 73.782 95.2742 73.4875 100.112C73.4801 100.166 73.4727 100.218 73.4738 100.272C73.4693 100.355 73.456 100.437 73.4525 100.52H71.0141H69.8426L74.9111 74.1622L74.5119 73.763L71.7803 71.0315L71.0276 70.2788L68.2955 73.0104L65.564 70.2788L62.8324 73.0104L60.1008 70.2788L56.2174 74.1622L61.2859 100.52H60.1143H57.6749C57.6715 100.438 57.658 100.357 57.6536 100.275C57.6549 100.218 57.647 100.163 57.6389 100.106C57.3397 95.2912 55.3882 90.5439 52.0421 86.6148C49.3094 83.4065 47.8046 79.3161 47.8046 75.0974Z" fill="#140FF5"/>
<path d="M66.6283 46H64.4991V53.1344H66.6283V46Z" fill="#140FF5"/>
<path d="M56.0138 55.4074L52.4464 49.2286L50.6022 50.2933L54.1697 56.4721L56.0138 55.4074Z" fill="#140FF5"/>
<path d="M47.957 62.6845L41.7783 59.1171L40.7135 60.9612L46.8923 64.5286L47.957 62.6845Z" fill="#140FF5"/>
<path d="M44.6191 73.0145H37.4847V75.1436H44.6191V73.0145Z" fill="#140FF5"/>
<path d="M41.7791 89.0374L47.9584 85.4708L46.8939 83.6264L40.7146 87.193L41.7791 89.0374Z" fill="#140FF5"/>
<path d="M83.1693 85.4766L89.3477 89.0438L90.4124 87.1997L84.234 83.6324L83.1693 85.4766Z" fill="#140FF5"/>
<path d="M93.6428 73.0145H86.5084V75.1436H93.6428V73.0145Z" fill="#140FF5"/>
<path d="M84.2358 64.5266L90.4142 60.9594L89.3495 59.1153L83.1711 62.6825L84.2358 64.5266Z" fill="#140FF5"/>
<path d="M76.9613 56.4765L80.5279 50.2972L78.6836 49.2327L75.117 55.412L76.9613 56.4765Z" fill="#140FF5"/>
<path d="M27.6332 142.61H25.504V144.739H27.6332V142.61Z" fill="#140FF5"/>
<path d="M31.8914 142.61H29.7623V144.739H31.8914V142.61Z" fill="#140FF5"/>
<path d="M36.1498 142.61H34.0206V144.739H36.1498V142.61Z" fill="#140FF5"/>
<path d="M23.5995 125.773H21.4703V127.902H23.5995V125.773Z" fill="#140FF5"/>
<path d="M27.8578 125.773H25.7287V127.902H27.8578V125.773Z" fill="#140FF5"/>
<path d="M19.3411 125.773H17.212V127.902H19.3411V125.773Z" fill="#140FF5"/>
<path d="M29.7406 96.369H27.6115V98.4982H29.7406V96.369Z" fill="#140FF5"/>
<path d="M33.9987 96.369H31.8696V98.4982H33.9987V96.369Z" fill="#140FF5"/>
<path d="M25.4823 96.369H23.3531V98.4982H25.4823V96.369Z" fill="#140FF5"/>
<path d="M23.217 58.9749H21.0878V61.1041H23.217V58.9749Z" fill="#140FF5"/>
<path d="M27.4751 58.9749H25.346V61.1041H27.4751V58.9749Z" fill="#140FF5"/>
<path d="M31.7335 58.9749H29.6044V61.1041H31.7335V58.9749Z" fill="#140FF5"/>
<path d="M25.2401 76.8901H22.4289V79.0192H25.2401V81.8303H27.3692V79.0192H30.1798V76.8901H27.3692V74.0789H25.2401V76.8901Z" fill="#140FF5"/>
<path d="M19.8107 112.507H17V114.636H19.8107V117.447H21.9398V114.636H24.7509V112.507H21.9398V109.696H19.8107V112.507Z" fill="#140FF5"/>
<path d="M97.9789 142.61H95.8498V144.739H97.9789V142.61Z" fill="#140FF5"/>
<path d="M106.496 142.61H104.366V144.739H106.496V142.61Z" fill="#140FF5"/>
<path d="M102.237 142.61H100.108V144.739H102.237V142.61Z" fill="#140FF5"/>
<path d="M106.271 125.773H104.142V127.902H106.271V125.773Z" fill="#140FF5"/>
<path d="M114.788 125.773H112.658V127.902H114.788V125.773Z" fill="#140FF5"/>
<path d="M110.529 125.773H108.4V127.902H110.529V125.773Z" fill="#140FF5"/>
<path d="M100.13 96.369H98.0013V98.4982H100.13V96.369Z" fill="#140FF5"/>
<path d="M104.389 96.369H102.26V98.4982H104.389V96.369Z" fill="#140FF5"/>
<path d="M108.647 96.369H106.518V98.4982H108.647V96.369Z" fill="#140FF5"/>
<path d="M106.654 58.9749H104.525V61.1041H106.654V58.9749Z" fill="#140FF5"/>
<path d="M110.912 58.9749H108.783V61.1041H110.912V58.9749Z" fill="#140FF5"/>
<path d="M102.396 58.9749H100.267V61.1041H102.396V58.9749Z" fill="#140FF5"/>
<path d="M101.82 79.0192H104.631V81.8303H106.76V79.0192H109.571V76.8901H106.76V74.0789H104.631V76.8901H101.82V79.0192Z" fill="#140FF5"/>
<path d="M115 112.507H112.189V109.696H110.06V112.507H107.248V114.636H110.06V117.447H112.189V114.636H115V112.507Z" fill="#140FF5"/>
</svg>
