<svg width="198" height="75" viewBox="0 0 198 75" fill="none" xmlns="http://www.w3.org/2000/svg">
<path d="M42.1907 63.0806V11.7002C43.1068 10.7016 43.7124 9.45794 43.9336 8.12101C44.1549 6.78408 43.9823 5.41166 43.4368 4.17117C42.8914 2.93067 41.9967 1.87574 40.8619 1.13507C39.7271 0.394394 38.4013 0 37.0462 0C35.6911 0 34.3653 0.394394 33.2305 1.13507C32.0957 1.87574 31.201 2.93067 30.6556 4.17117C30.1101 5.41166 29.9375 6.78408 30.1588 8.12101C30.38 9.45794 30.9856 10.7016 31.9016 11.7002V63.0806C30.9547 64.0851 30.3226 65.345 30.0833 66.7046C29.844 68.0642 30.008 69.4642 30.5551 70.7317C31.1021 71.9992 32.0083 73.0788 33.1618 73.8373C34.3153 74.5958 35.6657 75 37.0462 75C38.4267 75 39.7771 74.5958 40.9306 73.8373C42.0841 73.0788 42.9903 71.9992 43.5373 70.7317C44.0844 69.4642 44.2484 68.0642 44.0091 66.7046C43.7698 65.345 43.1377 64.0851 42.1907 63.0806ZM37.0472 4.65788C37.5074 4.65788 37.9573 4.79436 38.34 5.05006C38.7227 5.30575 39.021 5.66919 39.1971 6.0944C39.3732 6.51961 39.4193 6.9875 39.3295 7.4389C39.2397 7.8903 39.0181 8.30494 38.6926 8.63038C38.3672 8.95583 37.9526 9.17746 37.5012 9.26725C37.0498 9.35703 36.5819 9.31095 36.1567 9.13482C35.7315 8.95869 35.368 8.66043 35.1123 8.27775C34.8566 7.89507 34.7201 7.44516 34.7201 6.98492C34.7199 6.67925 34.7799 6.37654 34.8967 6.09409C35.0136 5.81165 35.185 5.55501 35.4011 5.33887C35.6173 5.12274 35.8739 4.95134 36.1564 4.83449C36.4388 4.71763 36.7415 4.65762 37.0472 4.65788ZM37.0472 70.2808C36.5809 70.2812 36.125 70.1432 35.7372 69.8844C35.3493 69.6256 35.0469 69.2576 34.8683 68.8269C34.6897 68.3962 34.6429 67.9222 34.7338 67.4649C34.8246 67.0075 35.0491 66.5874 35.3788 66.2577C35.7085 65.928 36.1286 65.7035 36.5859 65.6127C37.0433 65.5218 37.5173 65.5686 37.948 65.7473C38.3787 65.9259 38.7467 66.2282 39.0055 66.6161C39.2643 67.0039 39.4022 67.4598 39.4019 67.9261C39.4019 68.5506 39.1538 69.1495 38.7122 69.5911C38.2706 70.0327 37.6717 70.2808 37.0472 70.2808Z" fill="white"/>
<path d="M31.8975 37.7179C31.8975 37.8185 31.8975 37.9152 31.8975 38.012C31.8975 38.1087 31.8975 38.1738 31.8817 38.2547C31.8808 38.2659 31.8808 38.2771 31.8817 38.2883L31.8581 38.533C31.8581 38.5922 31.8462 38.6514 31.8383 38.7107C31.8394 38.7185 31.8394 38.7265 31.8383 38.7343C31.8383 38.7699 31.8383 38.8054 31.8265 38.8409C31.8265 38.91 31.8087 38.9771 31.7969 39.0383C31.785 39.1153 31.7712 39.1903 31.7574 39.2673C31.7436 39.3442 31.7238 39.4528 31.7061 39.5475L31.6587 39.7627C31.6232 39.9186 31.5817 40.0765 31.5383 40.2304L31.5146 40.3193C31.4949 40.3883 31.4751 40.4554 31.4534 40.5166C31.4317 40.5778 31.4159 40.6351 31.3962 40.6943C31.3804 40.7476 31.3607 40.7989 31.3449 40.8482L31.2876 41.0081L31.185 41.2548C31.1554 41.3318 31.1238 41.4048 31.0922 41.4818C31.0607 41.5588 31.0389 41.6042 31.0113 41.6653C30.9837 41.7265 30.9797 41.7403 30.962 41.7779C30.8304 42.066 30.685 42.3469 30.5258 42.6206C30.4883 42.6858 30.4488 42.7529 30.4074 42.818C30.3659 42.8831 30.3402 42.9285 30.3047 42.9858L30.2613 43.0529C30.2218 43.1141 30.1823 43.1772 30.1409 43.2364C30.0994 43.2957 30.0679 43.345 30.0284 43.3983L29.981 43.4634C29.9396 43.5226 29.8981 43.5819 29.8547 43.6391C29.7777 43.7417 29.6988 43.8365 29.6179 43.943C29.5889 43.9799 29.5573 44.0174 29.5231 44.0555C29.4343 44.1621 29.3455 44.2648 29.2527 44.3674L29.2053 44.4187L29.0632 44.5727C28.9409 44.699 28.8165 44.8233 28.6882 44.9457L28.5737 45.0523C28.5007 45.1194 28.4237 45.1865 28.3487 45.2497C28.2737 45.3128 28.252 45.3345 28.2027 45.374C28.1237 45.4411 28.0468 45.5023 27.9678 45.5714C27.8889 45.6405 27.8375 45.672 27.7704 45.7194C27.7033 45.7668 27.6145 45.8359 27.5375 45.8892L27.3658 46.0076C27.3106 46.0471 27.2533 46.0846 27.1961 46.1221C27.0527 46.2142 26.9066 46.303 26.7579 46.3885L26.5783 46.4911L26.4697 46.5504C26.3671 46.6056 26.2605 46.6589 26.1539 46.7122C26.1125 46.7339 26.073 46.7517 26.0296 46.7714L25.8816 46.8425C25.8441 46.8583 25.8085 46.876 25.771 46.8898C25.6427 46.9491 25.5125 47.0023 25.3763 47.0537C25.3013 47.0852 25.2243 47.1129 25.1473 47.1405L24.95 47.2096L24.8493 47.2431L24.6657 47.3023L24.4684 47.3616H24.4506L24.3519 47.3892L24.1703 47.4385L24.0322 47.4721L23.9809 47.4839L23.8545 47.5135C23.7322 47.5412 23.6078 47.5668 23.4815 47.5905L23.3631 47.6103C23.2368 47.6339 23.1085 47.6517 22.9802 47.6695L22.8302 47.6892L22.6328 47.7109L22.4157 47.7287H22.313C22.1828 47.7405 22.0525 47.7464 21.9183 47.7484H21.8196H21.3578H21.2591C21.1268 47.7484 20.9966 47.7484 20.8643 47.7287H20.7617L20.5485 47.7109L20.3511 47.6892L20.2011 47.6695C20.0709 47.6517 19.9446 47.6339 19.8182 47.6103L19.6998 47.5905C19.5682 47.5668 19.4439 47.5412 19.3268 47.5135C19.2834 47.5037 19.2419 47.4958 19.2005 47.4839C19.1831 47.4811 19.166 47.4772 19.1491 47.4721L19.011 47.4385L18.8294 47.3892L18.7307 47.3616L18.7504 47.3734C18.6873 47.3537 18.6222 47.3359 18.5531 47.3142L18.3695 47.255L18.2689 47.2214L18.0715 47.1523C17.9945 47.1247 17.9195 47.0971 17.8425 47.0655C17.7103 47.0142 17.58 46.9609 17.4478 46.9017L17.3392 46.8543L17.1912 46.7833C17.1478 46.7635 17.1063 46.7458 17.0668 46.724C16.9603 46.6708 16.8537 46.6175 16.751 46.5622L16.6425 46.503L16.4629 46.4004C16.3155 46.3148 16.1694 46.226 16.0247 46.1339C15.9655 46.0964 15.9102 46.0589 15.855 46.0194C15.7997 45.9799 15.7385 45.9424 15.6833 45.901C15.628 45.8595 15.5273 45.7905 15.4503 45.7313C15.3734 45.672 15.3201 45.6345 15.253 45.5832C15.1859 45.5319 15.0951 45.4589 15.0181 45.3858C14.9411 45.3128 14.9194 45.3049 14.872 45.2615C14.8247 45.2181 14.7201 45.1293 14.6451 45.0641C14.6095 45.0266 14.5701 44.9931 14.5326 44.9575C14.4043 44.8352 14.2779 44.7108 14.1576 44.5845L14.0154 44.4306L13.9681 44.3792C13.8753 44.2766 13.7845 44.1819 13.6957 44.0674L13.6029 43.9549C13.52 43.8542 13.4431 43.7575 13.3661 43.6509L13.2378 43.4753L13.1924 43.4101C13.1529 43.3568 13.1174 43.3016 13.0799 43.2483C13.0424 43.195 12.999 43.1259 12.9575 43.0647C12.9437 43.041 12.9279 43.0193 12.9141 42.9976C12.8805 42.9404 12.847 42.8871 12.8115 42.8299L12.695 42.6325C12.5371 42.3588 12.3917 42.0779 12.2588 41.7897L12.2075 41.6772L12.1266 41.4936C12.097 41.4167 12.0654 41.3436 12.0378 41.2667C12.0101 41.1897 11.9785 41.1226 11.9529 41.0495C11.9272 40.9765 11.9134 40.943 11.8976 40.8897C11.8818 40.8364 11.8601 40.789 11.8443 40.7357C11.8246 40.6765 11.8029 40.6173 11.7871 40.5581C11.7713 40.4989 11.7437 40.4239 11.7259 40.3607C11.7259 40.3311 11.7081 40.3015 11.7002 40.2719C11.6568 40.1179 11.6173 39.96 11.5818 39.8041L11.5345 39.589C11.5167 39.4942 11.4969 39.4015 11.4812 39.3087C11.4654 39.2159 11.4555 39.1567 11.4437 39.0797C11.4318 39.0087 11.4219 38.9416 11.4141 38.8824C11.4141 38.8468 11.4141 38.8113 11.4002 38.7758C11.3992 38.7679 11.3992 38.76 11.4002 38.7521C11.4002 38.6929 11.3844 38.6337 11.3785 38.5745C11.3726 38.5153 11.3647 38.4126 11.3568 38.3297C11.3578 38.3186 11.3578 38.3073 11.3568 38.2962C11.3568 38.2153 11.345 38.1343 11.341 38.0534C11.3371 37.9725 11.341 37.856 11.341 37.7593C11.341 37.6626 11.341 37.6014 11.341 37.5225V27.1899H1.03218V37.481C1.03218 37.5916 1.03218 37.7021 1.03218 37.8126C1.03218 37.9231 1.03218 38.0652 1.03218 38.1916V38.4541C1.03218 38.4659 1.03218 38.4778 1.03218 38.4916C1.03218 38.5054 1.03218 38.5646 1.03218 38.6021C1.03218 38.7008 1.03218 38.7995 1.04994 38.8962C1.06771 38.9929 1.06771 39.1311 1.07758 39.2475C1.08745 39.364 1.09534 39.4449 1.10324 39.5377C1.11705 39.6758 1.13284 39.816 1.15061 39.9561C1.16837 40.0962 1.17626 40.1771 1.19205 40.2877C1.20784 40.3982 1.22166 40.4949 1.23745 40.5976C1.2384 40.6087 1.2384 40.6199 1.23745 40.6311C1.25324 40.7298 1.26903 40.8285 1.28877 40.9311C1.31048 41.0831 1.34008 41.2331 1.36969 41.3831C1.38548 41.4719 1.40324 41.5627 1.42101 41.6496C1.43877 41.7364 1.4664 41.8726 1.49404 41.9851C1.51575 42.0936 1.54141 42.2022 1.56706 42.3088C1.5947 42.4193 1.62036 42.5298 1.64799 42.6384L1.77628 42.9976C1.80589 43.1022 1.83352 43.195 1.86313 43.3075C1.86862 43.321 1.87323 43.3349 1.87694 43.3489C1.90457 43.4437 1.93418 43.5365 1.96379 43.6312C1.99339 43.7259 2.03089 43.8463 2.06839 43.9549C2.1059 44.0634 2.1434 44.1858 2.18682 44.3023C2.23024 44.4187 2.25393 44.4996 2.28945 44.5904C2.32498 44.6812 2.36248 44.7878 2.39998 44.8825V44.9062C2.44143 45.0108 2.48288 45.1154 2.5263 45.2201C2.60723 45.4174 2.69407 45.6148 2.78289 45.824C2.78629 45.8347 2.79024 45.8453 2.79473 45.8556C2.83815 45.9503 2.88158 46.053 2.92697 46.1418C2.97237 46.2306 3.02368 46.349 3.07303 46.4517L3.1954 46.6984C3.25856 46.8267 3.32567 46.953 3.39277 47.0813C3.43225 47.1583 3.47567 47.2372 3.51909 47.3142C3.57436 47.4208 3.6316 47.5254 3.69081 47.628L3.84476 47.8945C3.86055 47.9201 3.87634 47.9478 3.8941 47.9734L4.03029 48.2004C4.09148 48.3011 4.15464 48.3978 4.22767 48.5044C4.30069 48.6109 4.3303 48.6662 4.38359 48.7471C4.38732 48.7521 4.39062 48.7574 4.39346 48.7629C4.44872 48.8458 4.50202 48.9267 4.55925 49.0096C4.67176 49.1794 4.78821 49.3452 4.90861 49.509C4.94611 49.5623 4.98361 49.6136 5.02308 49.6649C5.13361 49.8189 5.25204 49.9708 5.36849 50.1228C5.43362 50.2077 5.49875 50.2886 5.56586 50.3695C5.63297 50.4505 5.67442 50.5077 5.73166 50.5669C5.78889 50.6261 5.82047 50.6755 5.86587 50.7288C5.96653 50.8492 6.06324 50.9676 6.1718 51.084C6.28036 51.2005 6.37904 51.315 6.48365 51.4294C6.55865 51.5104 6.63168 51.5873 6.70866 51.6663C6.73208 51.6941 6.75712 51.7204 6.78366 51.7452C6.8409 51.8044 6.89814 51.8656 6.95932 51.9248L7.09156 52.061C7.25933 52.2249 7.4271 52.3887 7.59881 52.5485L7.83566 52.7657C7.89487 52.819 7.95409 52.8722 8.01527 52.9236C8.07646 52.9749 8.11791 53.0144 8.16922 53.0578C8.22054 53.1012 8.26396 53.1407 8.31331 53.1821C8.48897 53.3301 8.66858 53.4762 8.84819 53.6203C8.91727 53.6736 8.98438 53.7288 9.04556 53.7802L9.13636 53.8512L9.28044 53.9598L9.47781 54.1078C9.70677 54.2775 9.94164 54.4394 10.1785 54.5953L10.3581 54.7157C10.4114 54.7512 10.4647 54.7868 10.518 54.8184C10.5713 54.8499 10.6186 54.8835 10.67 54.9151C10.7213 54.9466 10.7686 54.9782 10.82 55.0098L10.9917 55.1144L11.3055 55.298C11.4476 55.3828 11.5917 55.4638 11.7397 55.5427C11.793 55.5743 11.8502 55.6039 11.9075 55.6335C12.0141 55.6927 12.1226 55.748 12.2292 55.8032L12.5233 55.9513L12.7996 56.0835C12.8845 56.125 12.9694 56.1644 13.0582 56.2019L13.3444 56.3322L13.3661 56.3421L13.6523 56.4644H13.6681C13.7589 56.5039 13.8536 56.5414 13.9464 56.5789L13.9858 56.5927C14.0668 56.6283 14.1536 56.6598 14.2365 56.6914L14.3352 56.7289L14.5089 56.7921C14.5918 56.8256 14.6766 56.8553 14.7615 56.8849H14.7714C14.872 56.9224 14.9688 56.9579 15.0753 56.9895L15.1267 57.0053L15.324 57.0724L15.4819 57.1217L15.6931 57.1849L15.7938 57.2164L16.0741 57.2954H16.1155C16.2241 57.327 16.3366 57.3566 16.4471 57.3842L16.757 57.4632C16.8596 57.4868 16.9543 57.5125 17.0688 57.5342L17.3807 57.6033L17.5662 57.6408L17.8208 57.6882C17.9096 57.7079 18.0004 57.7217 18.0932 57.7375L18.2235 57.7592L18.4544 57.7967L18.5531 57.8342C18.63 57.8461 18.707 57.8599 18.786 57.8678L18.936 57.8895L19.0465 57.9033L19.3189 57.9349C19.4116 57.9448 19.5044 57.9566 19.5972 57.9645C19.6899 57.9724 19.7847 57.9823 19.8774 57.9882L20.1222 58.0079C20.1775 58.0079 20.2347 58.0079 20.2919 58.0198L20.5702 58.0355C20.6472 58.0355 20.7262 58.0454 20.8051 58.0454C21.0735 58.0573 21.3439 58.0612 21.6183 58.0612C21.8926 58.0612 22.1611 58.0612 22.4315 58.0454C22.5104 58.0454 22.5874 58.0454 22.6663 58.0355L22.9427 58.0198C22.9999 58.0198 23.0591 58.0198 23.1144 58.0079L23.3572 57.9882C23.4519 57.9882 23.5545 57.9744 23.6394 57.9645L23.9177 57.9349L24.1901 57.9033L24.3006 57.8895L24.4506 57.8678C24.5276 57.8678 24.6065 57.8461 24.6835 57.8342L24.7546 57.8244L24.9894 57.7869L25.1177 57.7651C25.2105 57.7494 25.2993 57.7355 25.3901 57.7158L25.6447 57.6684L25.8283 57.6309L26.1421 57.5618C26.2467 57.5401 26.3513 57.5145 26.454 57.4908L26.7638 57.4118L27.0954 57.323H27.1369L27.4171 57.2441L27.5178 57.2125L27.729 57.1493L27.8849 57.1L28.0823 57.0329L28.1316 57.0171C28.2323 56.9855 28.329 56.95 28.4376 56.9125C28.5244 56.8829 28.6073 56.8533 28.6922 56.8197L28.8659 56.7566L28.9626 56.7191C29.0494 56.6875 29.1323 56.6559 29.2152 56.6204L29.2547 56.6066L29.533 56.4921H29.5488L29.835 56.3697L29.8547 56.3598L30.1448 56.2296C30.2297 56.1921 30.3166 56.1526 30.4014 56.1111L30.6778 55.9789L30.9718 55.8309C31.0804 55.7756 31.185 55.7203 31.2936 55.6611L31.4613 55.5703C31.6074 55.4914 31.7534 55.4105 31.8956 55.3256V37.481C31.9015 37.5619 31.9015 37.6389 31.8975 37.7179Z" fill="white"/>
<path d="M12.3478 24.1033V11.7556H6.19888e-05V24.1033H12.3478Z" fill="white"/>
<path d="M66.0453 20.3728V37.2878C66.0453 39.6654 66.6269 41.43 67.7901 42.5813C68.9533 43.7327 70.5678 44.3083 72.6337 44.3083C74.6811 44.3083 76.2858 43.7327 77.4476 42.5813C78.6095 41.43 79.1911 39.6654 79.1924 37.2878V20.3728H82.6998V37.2503C82.6998 39.474 82.2524 41.3471 81.3576 42.8695C80.5171 44.3393 79.2537 45.5222 77.7318 46.2643C76.1243 46.9967 74.3784 47.3756 72.612 47.3756C70.8455 47.3756 69.0996 46.9967 67.4921 46.2643C65.9732 45.5252 64.7154 44.3411 63.8861 42.8695C63.0045 41.3484 62.5637 39.4753 62.5637 37.2503V20.3728H66.0453Z" fill="white"/>
<path d="M95.0985 26.9513C96.467 26.146 98.0591 25.7434 99.875 25.7434C101.659 25.7221 103.416 26.186 104.957 27.0855C106.482 27.9859 107.724 29.2943 108.544 30.8633C109.412 32.4883 109.846 34.3745 109.846 36.522C109.846 38.6444 109.412 40.5366 108.544 42.1984C107.736 43.7989 106.494 45.14 104.961 46.069C103.427 46.998 101.664 47.4774 99.871 47.4525C98.2118 47.4863 96.5745 47.0688 95.1341 46.2446C93.8529 45.5223 92.7779 44.4841 92.0116 43.2287V57.0765H88.522V26.0888H92.0116V29.9632C92.7581 28.7055 93.8229 27.6667 95.0985 26.9513ZM105.321 32.3732C104.732 31.2486 103.833 30.3164 102.731 29.6869C101.637 29.0721 100.4 28.755 99.1447 28.7671C97.8978 28.7574 96.6711 29.0818 95.592 29.7066C94.4858 30.3542 93.5822 31.2975 92.9827 32.4304C92.3119 33.6994 91.9756 35.1185 92.0057 36.5535C91.973 38.0015 92.3092 39.434 92.9827 40.7162C93.5817 41.8489 94.4855 42.7917 95.592 43.4379C96.6707 44.0637 97.8977 44.3882 99.1447 44.3775C100.403 44.3905 101.641 44.0661 102.731 43.4379C103.835 42.7946 104.733 41.8506 105.321 40.7162C105.96 39.5319 106.28 38.1319 106.28 36.516C106.28 34.9384 105.96 33.5574 105.321 32.3732Z" fill="white"/>
<path d="M118.706 28.9645V41.3536C118.706 42.376 118.924 43.0997 119.36 43.5248C119.795 43.9498 120.549 44.161 121.622 44.1583H124.188V47.1189H121.047C119.104 47.1189 117.646 46.6716 116.674 45.7768C115.701 44.882 115.216 43.4116 115.217 41.3655V28.9645H112.503V26.0887H115.227V20.7952H118.716V26.0887H124.201V28.9645H118.706Z" fill="white"/>
<path d="M128.526 21.9834C128.187 21.6526 127.955 21.2276 127.859 20.7634C127.764 20.2992 127.81 19.8171 127.992 19.3794C128.174 18.9418 128.483 18.5687 128.879 18.3085C129.275 18.0482 129.74 17.9127 130.214 17.9195C130.519 17.9142 130.821 17.9728 131.102 18.0914C131.384 18.21 131.637 18.3861 131.846 18.6084C132.277 19.0645 132.517 19.6683 132.517 20.2959C132.517 20.9235 132.277 21.5273 131.846 21.9834C131.637 22.206 131.385 22.3824 131.104 22.5014C130.823 22.6204 130.52 22.6793 130.216 22.6743C129.902 22.6812 129.59 22.6235 129.299 22.5047C129.008 22.3858 128.745 22.2084 128.526 21.9834ZM131.901 26.0888V47.1072H128.412V26.0888H131.901Z" fill="white"/>
<path d="M167.496 26.7203C168.789 27.4117 169.846 28.4736 170.531 29.7697C171.272 31.1264 171.642 32.7757 171.642 34.7179V47.1071H168.184V35.2173C168.184 33.1212 167.667 31.5165 166.631 30.4033C165.596 29.2901 164.198 28.7342 162.439 28.7355C160.62 28.7355 159.173 29.3171 158.097 30.4803C157.02 31.6435 156.483 33.3271 156.486 35.5311V47.115H153.034V35.2173C153.034 33.1212 152.516 31.5165 151.481 30.4033C150.445 29.2901 149.045 28.7342 147.281 28.7355C145.465 28.7355 144.017 29.3171 142.938 30.4803C141.859 31.6435 141.325 33.3271 141.336 35.5311V47.115H137.846V26.0887H141.336V29.1184C142.011 28.0339 142.974 27.1574 144.117 26.5861C145.314 25.992 146.635 25.6903 147.971 25.7058C149.609 25.6716 151.226 26.0808 152.651 26.8901C154.014 27.692 155.078 28.9174 155.681 30.3796C156.238 28.9347 157.265 27.7189 158.596 26.9276C159.962 26.1076 161.529 25.6832 163.122 25.7019C164.641 25.6751 166.144 26.025 167.496 26.7203Z" fill="white"/>
<path d="M177.352 30.8633C178.171 29.2937 179.414 27.985 180.939 27.0855C182.48 26.1858 184.237 25.7219 186.021 25.7434C187.863 25.7434 189.461 26.1381 190.815 26.9276C192.079 27.6304 193.126 28.6651 193.845 29.9198V26.0888H197.374V47.1071H193.845V43.1952C193.108 44.4697 192.041 45.5229 190.758 46.2446C189.39 47.0499 187.797 47.4526 185.982 47.4526C184.198 47.4754 182.444 46.9967 180.919 46.0709C179.395 45.1347 178.16 43.7943 177.352 42.1985C176.483 40.5366 176.051 38.6431 176.058 36.518C176.058 34.3719 176.489 32.487 177.352 30.8633ZM192.886 32.4166C192.293 31.2909 191.397 30.354 190.298 29.7126C189.206 29.0999 187.975 28.7766 186.723 28.7731C185.471 28.7696 184.239 29.0862 183.143 29.6928C182.051 30.3279 181.162 31.2593 180.577 32.3791C179.933 33.5594 179.61 34.939 179.61 36.518C179.61 38.1286 179.93 39.5286 180.57 40.7182C181.153 41.848 182.042 42.7912 183.135 43.4399C184.222 44.0725 185.459 44.3986 186.716 44.3834C187.974 44.3959 189.212 44.0715 190.302 43.4439C191.405 42.7999 192.302 41.8561 192.89 40.7221C193.552 39.4364 193.881 38.0053 193.849 36.5595C193.846 34.9752 193.525 33.5943 192.886 32.4166Z" fill="white"/>
</svg>
