<svg width="31" height="32" viewBox="0 0 31 32" fill="none" xmlns="http://www.w3.org/2000/svg">
<path d="M30.8975 10.7179C30.8975 10.8185 30.8975 10.9152 30.8975 11.012C30.8975 11.1087 30.8975 11.1738 30.8817 11.2547C30.8808 11.2659 30.8808 11.2771 30.8817 11.2883L30.8581 11.533C30.8581 11.5922 30.8462 11.6514 30.8383 11.7107C30.8394 11.7185 30.8394 11.7265 30.8383 11.7343C30.8383 11.7699 30.8383 11.8054 30.8265 11.8409C30.8265 11.91 30.8087 11.9771 30.7969 12.0383C30.785 12.1153 30.7712 12.1903 30.7574 12.2673C30.7436 12.3442 30.7238 12.4528 30.7061 12.5475L30.6587 12.7627C30.6232 12.9186 30.5817 13.0765 30.5383 13.2304L30.5146 13.3193C30.4949 13.3883 30.4751 13.4554 30.4534 13.5166C30.4317 13.5778 30.4159 13.6351 30.3962 13.6943C30.3804 13.7476 30.3607 13.7989 30.3449 13.8482L30.2876 14.0081L30.185 14.2548C30.1554 14.3318 30.1238 14.4048 30.0922 14.4818C30.0607 14.5588 30.0389 14.6042 30.0113 14.6653C29.9837 14.7265 29.9797 14.7403 29.962 14.7779C29.8304 15.066 29.685 15.3469 29.5258 15.6206C29.4883 15.6858 29.4488 15.7529 29.4074 15.818C29.3659 15.8831 29.3402 15.9285 29.3047 15.9858L29.2613 16.0529C29.2218 16.1141 29.1823 16.1772 29.1409 16.2364C29.0994 16.2957 29.0679 16.345 29.0284 16.3983L28.981 16.4634C28.9396 16.5226 28.8981 16.5819 28.8547 16.6391C28.7777 16.7417 28.6988 16.8365 28.6179 16.943C28.5889 16.9799 28.5573 17.0174 28.5231 17.0555C28.4343 17.1621 28.3455 17.2648 28.2527 17.3674L28.2053 17.4187L28.0632 17.5727C27.9409 17.699 27.8165 17.8233 27.6882 17.9457L27.5737 18.0523C27.5007 18.1194 27.4237 18.1865 27.3487 18.2497C27.2737 18.3128 27.252 18.3345 27.2027 18.374C27.1237 18.4411 27.0468 18.5023 26.9678 18.5714C26.8889 18.6405 26.8375 18.672 26.7704 18.7194C26.7033 18.7668 26.6145 18.8359 26.5375 18.8892L26.3658 19.0076C26.3106 19.0471 26.2533 19.0846 26.1961 19.1221C26.0527 19.2142 25.9066 19.303 25.7579 19.3885L25.5783 19.4911L25.4697 19.5504C25.3671 19.6056 25.2605 19.6589 25.1539 19.7122C25.1125 19.7339 25.073 19.7517 25.0296 19.7714L24.8816 19.8425C24.8441 19.8583 24.8085 19.876 24.771 19.8898C24.6427 19.9491 24.5125 20.0023 24.3763 20.0537C24.3013 20.0852 24.2243 20.1129 24.1473 20.1405L23.95 20.2096L23.8493 20.2431L23.6657 20.3023L23.4684 20.3616H23.4506L23.3519 20.3892L23.1703 20.4385L23.0322 20.4721L22.9809 20.4839L22.8545 20.5135C22.7322 20.5412 22.6078 20.5668 22.4815 20.5905L22.3631 20.6103C22.2368 20.6339 22.1085 20.6517 21.9802 20.6695L21.8302 20.6892L21.6328 20.7109L21.4157 20.7287H21.313C21.1828 20.7405 21.0525 20.7464 20.9183 20.7484H20.8196H20.3578H20.2591C20.1268 20.7484 19.9966 20.7484 19.8643 20.7287H19.7617L19.5485 20.7109L19.3511 20.6892L19.2011 20.6695C19.0709 20.6517 18.9446 20.6339 18.8182 20.6103L18.6998 20.5905C18.5682 20.5668 18.4439 20.5412 18.3268 20.5135C18.2834 20.5037 18.2419 20.4958 18.2005 20.4839C18.1831 20.4811 18.166 20.4772 18.1491 20.4721L18.011 20.4385L17.8294 20.3892L17.7307 20.3616L17.7504 20.3734C17.6873 20.3537 17.6222 20.3359 17.5531 20.3142L17.3695 20.255L17.2689 20.2214L17.0715 20.1523C16.9945 20.1247 16.9195 20.0971 16.8425 20.0655C16.7103 20.0142 16.58 19.9609 16.4478 19.9017L16.3392 19.8543L16.1912 19.7833C16.1478 19.7635 16.1063 19.7458 16.0668 19.724C15.9603 19.6708 15.8537 19.6175 15.751 19.5622L15.6425 19.503L15.4629 19.4004C15.3155 19.3148 15.1694 19.226 15.0247 19.1339C14.9655 19.0964 14.9102 19.0589 14.855 19.0194C14.7997 18.9799 14.7385 18.9424 14.6833 18.901C14.628 18.8595 14.5273 18.7905 14.4503 18.7313C14.3734 18.672 14.3201 18.6345 14.253 18.5832C14.1859 18.5319 14.0951 18.4589 14.0181 18.3858C13.9411 18.3128 13.9194 18.3049 13.872 18.2615C13.8247 18.2181 13.7201 18.1293 13.6451 18.0641C13.6095 18.0266 13.5701 17.9931 13.5326 17.9575C13.4043 17.8352 13.2779 17.7108 13.1576 17.5845L13.0154 17.4306L12.9681 17.3792C12.8753 17.2766 12.7845 17.1819 12.6957 17.0674L12.6029 16.9549C12.52 16.8542 12.4431 16.7575 12.3661 16.6509L12.2378 16.4753L12.1924 16.4101C12.1529 16.3568 12.1174 16.3016 12.0799 16.2483C12.0424 16.195 11.999 16.1259 11.9575 16.0647C11.9437 16.041 11.9279 16.0193 11.9141 15.9976C11.8805 15.9404 11.847 15.8871 11.8115 15.8299L11.695 15.6325C11.5371 15.3588 11.3917 15.0779 11.2588 14.7897L11.2075 14.6772L11.1266 14.4936C11.097 14.4167 11.0654 14.3436 11.0378 14.2667C11.0101 14.1897 10.9785 14.1226 10.9529 14.0495C10.9272 13.9765 10.9134 13.943 10.8976 13.8897C10.8818 13.8364 10.8601 13.789 10.8443 13.7357C10.8246 13.6765 10.8029 13.6173 10.7871 13.5581C10.7713 13.4989 10.7437 13.4239 10.7259 13.3607C10.7259 13.3311 10.7081 13.3015 10.7002 13.2719C10.6568 13.1179 10.6173 12.96 10.5818 12.8041L10.5345 12.589C10.5167 12.4942 10.4969 12.4015 10.4812 12.3087C10.4654 12.2159 10.4555 12.1567 10.4437 12.0797C10.4318 12.0087 10.4219 11.9416 10.4141 11.8824C10.4141 11.8468 10.4141 11.8113 10.4002 11.7758C10.3992 11.7679 10.3992 11.76 10.4002 11.7521C10.4002 11.6929 10.3844 11.6337 10.3785 11.5745C10.3726 11.5153 10.3647 11.4126 10.3568 11.3297C10.3578 11.3186 10.3578 11.3073 10.3568 11.2962C10.3568 11.2153 10.345 11.1343 10.341 11.0534C10.3371 10.9725 10.341 10.856 10.341 10.7593C10.341 10.6626 10.341 10.6014 10.341 10.5225V0.189941H0.0321808V10.481C0.0321808 10.5916 0.0321808 10.7021 0.0321808 10.8126C0.0321808 10.9231 0.0321808 11.0652 0.0321808 11.1916V11.4541C0.0321808 11.4659 0.0321808 11.4778 0.0321808 11.4916C0.0321808 11.5054 0.0321808 11.5646 0.0321808 11.6021C0.0321808 11.7008 0.0321808 11.7995 0.0499445 11.8962C0.0677081 11.9929 0.0677081 12.1311 0.0775768 12.2475C0.0874455 12.364 0.0953405 12.4449 0.103235 12.5377C0.117052 12.6758 0.132841 12.816 0.150605 12.9561C0.168369 13.0962 0.176264 13.1771 0.192054 13.2877C0.207844 13.3982 0.22166 13.4949 0.23745 13.5976C0.238402 13.6087 0.238402 13.6199 0.23745 13.6311C0.25324 13.7298 0.26903 13.8285 0.288767 13.9311C0.310478 14.0831 0.340084 14.2331 0.36969 14.3831C0.38548 14.4719 0.403244 14.5627 0.421007 14.6496C0.438771 14.7364 0.466404 14.8726 0.494036 14.9851C0.515747 15.0936 0.541406 15.2022 0.567064 15.3088C0.594697 15.4193 0.620355 15.5298 0.647988 15.6384L0.776281 15.9976C0.805887 16.1022 0.833519 16.195 0.863125 16.3075C0.868616 16.321 0.873231 16.3349 0.876942 16.3489C0.904574 16.4437 0.93418 16.5365 0.963786 16.6312C0.993392 16.7259 1.03089 16.8463 1.06839 16.9549C1.1059 17.0634 1.1434 17.1858 1.18682 17.3023C1.23024 17.4187 1.25393 17.4996 1.28945 17.5904C1.32498 17.6812 1.36248 17.7878 1.39998 17.8825V17.9062C1.44143 18.0108 1.48288 18.1154 1.5263 18.2201C1.60723 18.4174 1.69407 18.6148 1.78289 18.824C1.78629 18.8347 1.79024 18.8453 1.79473 18.8556C1.83815 18.9503 1.88158 19.053 1.92697 19.1418C1.97237 19.2306 2.02368 19.349 2.07303 19.4517L2.1954 19.6984C2.25856 19.8267 2.32567 19.953 2.39277 20.0813C2.43225 20.1583 2.47567 20.2372 2.51909 20.3142C2.57436 20.4208 2.6316 20.5254 2.69081 20.628L2.84476 20.8945C2.86055 20.9201 2.87634 20.9478 2.8941 20.9734L3.03029 21.2004C3.09148 21.3011 3.15464 21.3978 3.22767 21.5044C3.30069 21.6109 3.3303 21.6662 3.38359 21.7471C3.38732 21.7521 3.39062 21.7574 3.39346 21.7629C3.44872 21.8458 3.50202 21.9267 3.55925 22.0096C3.67176 22.1794 3.78821 22.3452 3.90861 22.509C3.94611 22.5623 3.98361 22.6136 4.02308 22.6649C4.13361 22.8189 4.25204 22.9708 4.36849 23.1228C4.43362 23.2077 4.49875 23.2886 4.56586 23.3695C4.63297 23.4505 4.67442 23.5077 4.73166 23.5669C4.78889 23.6261 4.82047 23.6755 4.86587 23.7288C4.96653 23.8492 5.06324 23.9676 5.1718 24.084C5.28036 24.2005 5.37904 24.315 5.48365 24.4294C5.55865 24.5104 5.63168 24.5873 5.70866 24.6663C5.73208 24.6941 5.75712 24.7204 5.78366 24.7452C5.8409 24.8044 5.89814 24.8656 5.95932 24.9248L6.09156 25.061C6.25933 25.2249 6.4271 25.3887 6.59881 25.5485L6.83566 25.7657C6.89487 25.819 6.95409 25.8722 7.01527 25.9236C7.07646 25.9749 7.11791 26.0144 7.16922 26.0578C7.22054 26.1012 7.26396 26.1407 7.31331 26.1821C7.48897 26.3301 7.66858 26.4762 7.84819 26.6203C7.91727 26.6736 7.98438 26.7288 8.04556 26.7802L8.13636 26.8512L8.28044 26.9598L8.47781 27.1078C8.70677 27.2775 8.94164 27.4394 9.17849 27.5953L9.3581 27.7157C9.41139 27.7512 9.46468 27.7868 9.51797 27.8184C9.57127 27.8499 9.61864 27.8835 9.66995 27.9151C9.72127 27.9466 9.76864 27.9782 9.81996 28.0098L9.99167 28.1144L10.3055 28.298C10.4476 28.3828 10.5917 28.4638 10.7397 28.5427C10.793 28.5743 10.8502 28.6039 10.9075 28.6335C11.0141 28.6927 11.1226 28.748 11.2292 28.8032L11.5233 28.9513L11.7996 29.0835C11.8845 29.125 11.9694 29.1644 12.0582 29.2019L12.3444 29.3322L12.3661 29.3421L12.6523 29.4644H12.6681C12.7589 29.5039 12.8536 29.5414 12.9464 29.5789L12.9858 29.5927C13.0668 29.6283 13.1536 29.6598 13.2365 29.6914L13.3352 29.7289L13.5089 29.7921C13.5918 29.8256 13.6766 29.8553 13.7615 29.8849H13.7714C13.872 29.9224 13.9688 29.9579 14.0753 29.9895L14.1267 30.0053L14.324 30.0724L14.4819 30.1217L14.6931 30.1849L14.7938 30.2164L15.0741 30.2954H15.1155C15.2241 30.327 15.3366 30.3566 15.4471 30.3842L15.757 30.4632C15.8596 30.4868 15.9543 30.5125 16.0688 30.5342L16.3807 30.6033L16.5662 30.6408L16.8208 30.6882C16.9096 30.7079 17.0004 30.7217 17.0932 30.7375L17.2235 30.7592L17.4544 30.7967L17.5531 30.8342C17.63 30.8461 17.707 30.8599 17.786 30.8678L17.936 30.8895L18.0465 30.9033L18.3189 30.9349C18.4116 30.9448 18.5044 30.9566 18.5972 30.9645C18.6899 30.9724 18.7847 30.9823 18.8774 30.9882L19.1222 31.0079C19.1775 31.0079 19.2347 31.0079 19.2919 31.0198L19.5702 31.0355C19.6472 31.0355 19.7262 31.0454 19.8051 31.0454C20.0735 31.0573 20.3439 31.0612 20.6183 31.0612C20.8926 31.0612 21.1611 31.0612 21.4315 31.0454C21.5104 31.0454 21.5874 31.0454 21.6663 31.0355L21.9427 31.0198C21.9999 31.0198 22.0591 31.0198 22.1144 31.0079L22.3572 30.9882C22.4519 30.9882 22.5545 30.9744 22.6394 30.9645L22.9177 30.9349L23.1901 30.9033L23.3006 30.8895L23.4506 30.8678C23.5276 30.8678 23.6065 30.8461 23.6835 30.8342L23.7546 30.8244L23.9894 30.7869L24.1177 30.7651C24.2105 30.7494 24.2993 30.7355 24.3901 30.7158L24.6447 30.6684L24.8283 30.6309L25.1421 30.5618C25.2467 30.5401 25.3513 30.5145 25.454 30.4908L25.7638 30.4118L26.0954 30.323H26.1369L26.4171 30.2441L26.5178 30.2125L26.729 30.1493L26.8849 30.1L27.0823 30.0329L27.1316 30.0171C27.2323 29.9855 27.329 29.95 27.4376 29.9125C27.5244 29.8829 27.6073 29.8533 27.6922 29.8197L27.8659 29.7566L27.9626 29.7191C28.0494 29.6875 28.1323 29.6559 28.2152 29.6204L28.2547 29.6066L28.533 29.4921H28.5488L28.835 29.3697L28.8547 29.3598L29.1448 29.2296C29.2297 29.1921 29.3166 29.1526 29.4014 29.1111L29.6778 28.9789L29.9718 28.8309C30.0804 28.7756 30.185 28.7203 30.2936 28.6611L30.4613 28.5703C30.6074 28.4914 30.7534 28.4105 30.8956 28.3256V10.481C30.9015 10.5619 30.9015 10.6389 30.8975 10.7179Z" fill="white"/>
</svg>
