<svg width="131" height="196" viewBox="0 0 131 196" fill="none" xmlns="http://www.w3.org/2000/svg">
<rect width="131" height="196" fill="#FE0E0E" fill-opacity="0.26"/>
<path d="M64.4817 99.0092C64.312 99.0092 64.2271 99.0092 64.0574 99.0092C61.9358 98.8395 60.3234 96.9725 60.3234 94.7661V93.578C59.4748 94.172 58.5413 94.4266 57.523 94.3418C55.4014 94.172 53.789 92.3051 53.789 90.0987V87.3831C52.9404 87.9771 52.0069 88.2317 50.9886 88.1468C48.867 87.9771 47.2546 86.1101 47.2546 83.9037V63.7065C47.2546 61.5849 48.1032 59.6331 49.5459 58.1055C50.2248 57.4266 50.6491 56.4083 50.6491 55.4748V53.4381C50.6491 52.9289 50.9886 52.5895 51.4977 52.5895H75.3441C75.8532 52.5895 76.1927 52.9289 76.1927 53.4381V57.9358C78.3142 59.039 79.672 62.2638 80.4358 67.5253C80.8601 70.5803 82.0482 73.4656 83.8303 75.9266L84.7638 77.1996C85.3578 78.0482 85.6124 79.1514 85.4427 80.1698C85.273 81.1881 84.5941 82.1216 83.7454 82.6308C82.7271 83.3097 81.4542 83.3945 80.3509 82.9702C78.0597 82.0367 76.2775 79.6606 75.0046 77.7087V90.3532C75.0046 91.5413 74.4954 92.6445 73.6468 93.4083C72.7982 94.172 71.6101 94.5964 70.5069 94.4266C69.7431 94.3418 69.0642 94.0872 68.4702 93.6629V95.0207C68.4702 96.2087 67.961 97.312 67.1124 98.0757C66.4335 98.6698 65.5 99.0092 64.4817 99.0092ZM62.0207 90.1835V94.7661C62.0207 96.039 62.9542 97.2271 64.2271 97.312C64.906 97.3968 65.5849 97.1422 66.0941 96.7179C66.6032 96.2936 66.8578 95.6147 66.8578 94.9358V74.0597C66.8578 73.5505 67.1973 73.211 67.7064 73.211C68.2156 73.211 68.5551 73.5505 68.5551 74.0597V90.0138C68.5551 91.2867 69.4886 92.4748 70.7615 92.5597C71.4404 92.6445 72.1193 92.3899 72.6285 91.9656C73.1376 91.5413 73.3922 90.8624 73.3922 90.1835V74.0597C73.3922 73.6353 73.6468 73.2959 74.0711 73.211C74.4954 73.1262 74.8349 73.3808 75.0046 73.7202C75.0046 73.8051 77.5505 79.7454 81.0298 81.1881C81.6239 81.4427 82.3028 81.3578 82.8968 81.0184C83.406 80.6789 83.7454 80.2546 83.8303 79.6606C83.9152 79.0665 83.8303 78.4725 83.4908 78.0482L82.4725 76.7753C80.5207 74.1445 79.1629 70.9198 78.7386 67.6101C78.0597 62.773 76.7019 59.7179 75.0895 59.2087C74.75 59.1239 74.4954 58.7844 74.4954 58.3601V54.2019H52.3464V55.3899C52.3464 56.8326 51.7523 58.1904 50.734 59.2087C49.5459 60.3968 48.9519 62.0092 48.9519 63.6216V83.8188C48.9519 85.0918 49.8853 86.2798 51.1583 86.3647C51.8372 86.4496 52.5161 86.195 53.0253 85.7707C53.5344 85.3464 53.789 84.6675 53.789 83.9886V74.0597C53.789 73.5505 54.1285 73.211 54.6376 73.211C55.1468 73.211 55.4863 73.5505 55.4863 74.0597V90.0138C55.4863 91.2867 56.4198 92.4748 57.6927 92.5597C58.3716 92.6445 59.0505 92.3899 59.5597 91.9656C60.0688 91.5413 60.3234 90.8624 60.3234 90.1835V74.0597C60.3234 73.5505 60.6629 73.211 61.172 73.211C61.6812 73.211 62.0207 73.5505 62.0207 74.0597V90.1835Z" fill="#FE0E0E"/>
<path d="M77.8899 54.2018H48.9519C48.4427 54.2018 48.1032 53.8624 48.1032 53.3532V43.8486C48.1032 43.3394 48.4427 43 48.9519 43H77.8899C78.3991 43 78.7386 43.3394 78.7386 43.8486V53.3532C78.7386 53.7775 78.3142 54.2018 77.8899 54.2018ZM49.8005 52.5046H77.0413V44.6972H49.8005V52.5046Z" fill="#FE0E0E"/>
<path d="M94.7775 144.835C94.5229 144.835 94.3532 144.75 94.1835 144.58L90.9587 141.44C88.7523 142.119 85.4427 140.846 81.1995 137.706C78.7385 135.839 75.8532 134.651 72.883 134.227L71.3555 133.972C70.3372 133.803 69.4037 133.209 68.8096 132.36C68.2156 131.511 68.0459 130.408 68.2156 129.39C68.4702 128.202 69.3188 127.183 70.3372 126.759C72.6284 125.826 75.5138 126.165 77.805 126.674L68.8096 117.764C67.961 116.915 67.5367 115.812 67.6216 114.624C67.7064 113.436 68.2156 112.417 69.1491 111.654C69.7431 111.144 70.422 110.89 71.1858 110.805L70.2523 109.872C69.4037 109.023 68.9794 107.92 69.0642 106.732C69.1491 105.544 69.6583 104.525 70.5917 103.761C72.2041 102.404 74.6651 102.573 76.1927 104.101L77.0413 104.95C77.211 103.931 77.7202 103.083 78.4839 102.404C80.0963 101.046 82.5573 101.216 84.0849 102.743L86.0367 104.695C86.2064 103.677 86.7156 102.828 87.4794 102.149C89.0917 100.791 91.5527 100.961 93.0803 102.489L107.252 116.83C108.78 118.358 109.544 120.31 109.628 122.431C109.628 123.45 110.053 124.383 110.732 125.062L112.174 126.505C112.344 126.674 112.429 126.844 112.429 127.099C112.429 127.353 112.344 127.523 112.174 127.693L95.2867 144.58C95.2018 144.75 94.9472 144.835 94.7775 144.835ZM91.2133 139.573C91.4679 139.573 91.6376 139.658 91.8073 139.828L94.7775 142.798L110.477 127.099L109.628 126.25C108.61 125.232 108.016 123.874 108.016 122.431C108.016 120.734 107.337 119.206 106.149 118.018L91.8073 103.761C90.8738 102.828 89.4312 102.743 88.4977 103.507C87.9885 103.931 87.6491 104.61 87.6491 105.289C87.6491 105.968 87.9037 106.647 88.328 107.156L95.3716 114.2C95.711 114.539 95.711 115.048 95.3716 115.388C95.0321 115.727 94.5229 115.727 94.1835 115.388L82.8119 103.931C81.8784 102.998 80.4358 102.913 79.5023 103.677C78.9931 104.101 78.6537 104.78 78.6537 105.459C78.6537 106.138 78.9083 106.817 79.3326 107.241L90.789 118.697C91.1284 119.037 91.1284 119.546 90.789 119.885C90.4495 120.225 89.9404 120.225 89.6009 119.885L78.0596 108.514L74.8349 105.289C73.9014 104.355 72.4587 104.271 71.5252 105.034C71.0161 105.459 70.6766 106.138 70.6766 106.817C70.6766 107.495 70.9312 108.174 71.3555 108.683L86.0367 123.365C86.3761 123.704 86.3761 124.213 86.0367 124.553C85.6972 124.892 85.1881 124.892 84.8486 124.553L73.5619 113.181C72.6284 112.248 71.1858 112.163 70.2523 112.927C69.7431 113.351 69.4037 114.03 69.4037 114.709C69.4037 115.388 69.6583 116.067 70.0826 116.576L81.4541 127.947C81.7087 128.202 81.7936 128.711 81.539 129.05C81.2844 129.39 80.8601 129.56 80.5206 129.39C80.4358 129.39 74.4954 126.929 71.0161 128.372C70.422 128.626 69.9977 129.135 69.828 129.814C69.6583 130.408 69.828 131.002 70.1674 131.427C70.5069 131.936 71.0161 132.19 71.6101 132.275L73.1376 132.53C76.4472 133.039 79.5872 134.312 82.3028 136.349C86.2064 139.319 89.3463 140.507 90.8739 139.658C90.8739 139.573 91.0436 139.573 91.2133 139.573Z" fill="#FE0E0E"/>
<path d="M99.6996 153.321C99.445 153.321 99.2753 153.236 99.1056 153.067L92.4015 146.362C92.2317 146.193 92.1469 146.023 92.1469 145.768C92.1469 145.514 92.2317 145.344 92.4015 145.174L112.853 124.722C113.023 124.553 113.193 124.468 113.447 124.468C113.702 124.468 113.872 124.553 114.041 124.722L120.746 131.427C121.085 131.766 121.085 132.275 120.746 132.615L100.294 153.067C100.124 153.236 99.8694 153.321 99.6996 153.321ZM94.1836 145.768L99.6996 151.284L118.963 132.021L113.447 126.505L94.1836 145.768Z" fill="#FE0E0E"/>
<path d="M36.2226 144.835C35.968 144.835 35.7982 144.75 35.6285 144.58L18.8258 127.693C18.4863 127.353 18.4863 126.844 18.8258 126.505L21.9657 123.365C21.2868 121.158 22.5597 117.849 25.6996 113.605C27.5666 111.144 28.7547 108.259 29.179 105.289L29.4336 103.761C29.6033 102.743 30.1973 101.81 31.046 101.216C31.8946 100.622 32.9978 100.452 34.0161 100.622C35.2042 100.876 36.2226 101.725 36.6469 102.743C37.5804 105.034 37.2409 107.92 36.7317 110.211L45.7271 101.216C46.5758 100.367 47.679 99.9426 48.8671 100.028C50.0551 100.112 51.0735 100.622 51.8372 101.555C52.3464 102.149 52.601 102.828 52.6859 103.592L53.6193 102.658C54.468 101.81 55.5712 101.385 56.7593 101.47C57.9473 101.555 58.9657 102.064 59.7294 102.998C61.0872 104.61 60.9175 107.071 59.39 108.599L58.5414 109.447C59.5597 109.617 60.4083 110.126 61.0872 110.89C62.445 112.502 62.2753 114.963 60.7478 116.491L58.796 118.443C59.8143 118.612 60.6629 119.122 61.3418 119.885C62.6996 121.498 62.5299 123.959 61.0024 125.486L46.7455 139.743C45.218 141.271 43.2661 142.034 41.1446 142.119C40.1262 142.119 39.1927 142.544 38.5138 143.222L37.0712 144.665C36.7317 144.75 36.4771 144.835 36.2226 144.835ZM20.6079 127.099L36.3074 142.798L37.156 141.95C38.1744 140.931 39.5322 140.337 40.9748 140.337C42.6721 140.337 44.1996 139.658 45.3877 138.47L59.6446 124.213C60.5781 123.28 60.6629 121.837 59.8992 120.904C59.4749 120.394 58.796 120.055 58.1171 120.055C57.4382 120.055 56.7593 120.31 56.3349 120.734L49.2914 127.778C48.9519 128.117 48.4427 128.117 48.1033 127.778C47.7638 127.438 47.7638 126.929 48.1033 126.589L55.1469 119.546L59.4749 115.218C60.4083 114.284 60.4932 112.842 59.7294 111.908C59.3051 111.399 58.6262 111.06 57.9473 111.06C57.2684 111.06 56.5895 111.314 56.0804 111.739L44.7088 123.11C44.3693 123.45 43.8602 123.45 43.5207 123.11C43.1813 122.771 43.1813 122.261 43.5207 121.922L58.1171 107.326C59.0505 106.392 59.1354 104.95 58.3716 104.016C57.9473 103.507 57.2684 103.167 56.5895 103.167C55.9106 103.167 55.2317 103.422 54.7226 103.846L51.3281 107.241C51.3281 107.241 51.3281 107.241 51.2432 107.326L40.0414 118.443C39.7019 118.782 39.1927 118.782 38.8533 118.443C38.5138 118.103 38.5138 117.594 38.8533 117.255L50.2249 105.883C51.1583 104.95 51.2432 103.507 50.4794 102.573C50.0551 102.064 49.3762 101.725 48.6973 101.725C48.0184 101.725 47.3395 101.979 46.8304 102.404L35.3739 113.775C35.1193 114.03 34.6102 114.115 34.2707 113.86C33.9313 113.605 33.7615 113.181 33.9313 112.842C33.9313 112.757 36.3923 106.816 34.9496 103.337C34.695 102.743 34.1859 102.319 33.507 102.149C32.9129 102.064 32.3189 102.149 31.8946 102.489C31.3854 102.828 31.1308 103.337 31.046 103.931L30.7914 105.459C30.2822 108.768 29.0093 111.908 26.9726 114.624C24.0024 118.528 22.8143 121.667 23.6629 123.195C23.8327 123.534 23.7478 123.959 23.4932 124.213L20.6079 127.099Z" fill="#FE0E0E"/>
<path d="M31.3005 153.321C31.0459 153.321 30.8761 153.236 30.7064 153.066L10.2546 132.615C9.91514 132.275 9.91514 131.766 10.2546 131.427L16.9587 124.722C17.2982 124.383 17.8073 124.383 18.1468 124.722L38.5986 145.174C38.7683 145.344 38.8532 145.514 38.8532 145.768C38.8532 146.023 38.7683 146.193 38.5986 146.362L31.8945 153.066C31.8096 153.236 31.555 153.321 31.3005 153.321ZM12.1216 132.021L31.3853 151.284L36.9014 145.768L17.6376 126.505L12.1216 132.021Z" fill="#FE0E0E"/>
</svg>
