<svg width="131" height="196" viewBox="0 0 131 196" fill="none" xmlns="http://www.w3.org/2000/svg">
<rect width="131" height="196" fill="#FE0E0E" fill-opacity="0.26"/>
<path d="M65.026 105.157L60.8065 104.101V84.6584C65.6768 83.3474 69.9198 80.1996 72.5779 75.8799L80.3692 63.2168C80.8776 62.3954 81.1452 61.4488 81.1452 60.4804C81.1452 57.6017 78.8031 55.2581 75.9228 55.2581H75.2798C73.5307 55.2581 71.9051 56.1279 70.9351 57.5829L63.2205 69.1541C61.9924 70.9955 60.262 72.3801 58.2798 73.1952C59.8568 71.299 60.8065 68.8647 60.8065 66.2097C60.8065 60.1706 55.8923 55.2581 49.8548 55.2581C43.8174 55.2581 38.9032 60.1706 38.9032 66.2097C38.9032 69.3606 40.2487 72.1955 42.3843 74.195C35.2094 75.0257 28.6791 79.1654 24.9227 85.4251L17.7478 97.3842C17.2581 98.1978 17 99.1302 17 100.083C17 102.973 19.3515 105.323 22.2411 105.323H22.8575C24.6129 105.323 26.2432 104.45 27.2163 102.99L36.9053 88.4555C37.3982 87.7139 38.1006 87.1585 38.9032 86.8441V100.629V106.568V125.661H27.9516C24.5003 125.661 21.6935 128.468 21.6935 131.919C21.6935 135.371 24.5003 138.177 27.9516 138.177H45.1613C48.6126 138.177 51.4194 135.371 51.4194 131.919V117.854L59.4641 119.004C60.2291 119.112 60.8065 119.779 60.8065 120.552V139.742C60.8065 143.193 63.6132 146 67.0645 146C70.5158 146 73.3226 143.193 73.3226 139.742V115.781C73.3226 110.747 69.9104 106.377 65.026 105.157ZM51.3755 90.638L49.8548 92.1587L48.3341 90.638L49.2337 77.1613H50.476L51.3755 90.638ZM42.0323 66.2097C42.0323 61.8963 45.5415 58.3871 49.8548 58.3871C54.1682 58.3871 57.6774 61.8963 57.6774 66.2097C57.6774 70.523 54.1682 74.0323 49.8548 74.0323C45.5415 74.0323 42.0323 70.523 42.0323 66.2097ZM45.1613 135.048H27.9516C26.226 135.048 24.8226 133.645 24.8226 131.919C24.8226 130.194 26.226 128.79 27.9516 128.79H42.0323V114.195C43.6703 115.878 45.8387 117.053 48.2903 117.407V131.919C48.2903 133.645 46.887 135.048 45.1613 135.048ZM70.1936 139.742C70.1936 141.468 68.7902 142.871 67.0645 142.871C65.3389 142.871 63.9355 141.468 63.9355 139.742V120.552C63.9355 118.231 62.2036 116.234 59.9069 115.907L48.7487 114.312C44.9204 113.765 42.0323 110.437 42.0323 106.568V100.629V83.4193H40.4677C37.9849 83.4193 35.6788 84.6537 34.302 86.7189L24.6129 101.253C24.2187 101.842 23.5631 102.194 22.856 102.194H22.2411C21.0756 102.194 20.129 101.247 20.129 100.083C20.129 99.6997 20.2323 99.3242 20.4294 98.9972L27.6059 87.0365C31.2606 80.9443 37.9442 77.1613 45.0471 77.1613H46.0969L45.1175 91.8458L49.8548 96.5832L54.5922 91.8458L53.6128 77.1613H54.1088C58.8289 77.1613 63.2064 74.8176 65.8239 70.8907L73.5385 59.3195C73.9281 58.736 74.5789 58.3871 75.2798 58.3871H75.9228C77.0759 58.3871 78.0161 59.3274 78.0161 60.4804C78.0161 60.8684 77.9097 61.247 77.7064 61.5771L69.9151 74.2388C67.4838 78.1876 63.4818 80.9756 58.9353 81.8846L57.6774 82.1364V106.544L64.2687 108.192C67.756 109.065 70.1936 112.185 70.1936 115.781V139.742Z" fill="#FE0E0E"/>
<path d="M98.3549 77.809L111.273 64.8908C113.032 63.1323 114 60.7949 114 58.3089C114 53.1757 109.824 49 104.691 49C102.319 49 100.082 49.8808 98.3549 51.4891C96.6277 49.8808 94.3904 49 92.0186 49C86.8854 49 82.7097 53.1757 82.7097 58.3089C82.7097 60.7949 83.6782 63.1323 85.4367 64.8908L98.3549 77.809ZM92.0186 52.129C93.6692 52.129 95.2212 52.772 96.3883 53.9392L98.3549 55.9073L100.321 53.9392C101.489 52.772 103.041 52.129 104.691 52.129C108.099 52.129 110.871 54.9014 110.871 58.3089C110.871 59.9594 110.228 61.5114 109.061 62.6786L98.3549 73.3846L87.6489 62.677C86.4818 61.5114 85.8387 59.9594 85.8387 58.3089C85.8387 54.9014 88.6111 52.129 92.0186 52.129Z" fill="#FE0E0E"/>
<path d="M91.1815 89.3473C92.757 88.0347 93.6613 86.1041 93.6613 84.053C93.6613 80.2528 90.5682 77.1613 86.7696 77.1613H86.4802C85.0987 77.1613 83.7782 77.565 82.7018 78.2768C81.591 77.5509 80.2956 77.1613 78.9392 77.1613H78.6497C74.8511 77.1613 71.7581 80.2528 71.7581 84.053C71.7581 86.1041 72.6623 88.0331 74.2378 89.3473L82.7097 96.408L91.1815 89.3473ZM74.8871 84.053C74.8871 81.9785 76.5752 80.2903 78.6497 80.2903H78.9392C79.9295 80.2903 80.898 80.6924 81.7037 81.4888L82.8114 82.404L83.822 81.3933C84.5214 80.6924 85.4898 80.2903 86.4802 80.2903H86.7696C88.8441 80.2903 90.5322 81.9785 90.5322 84.053C90.5322 85.1732 90.0394 86.2261 89.1774 86.9442L82.7097 92.334L76.242 86.9442C75.3799 86.2261 74.8871 85.1732 74.8871 84.053Z" fill="#FE0E0E"/>
<path d="M107.108 94.371H106.819C105.437 94.371 104.117 94.7746 103.041 95.4865C101.93 94.7605 100.634 94.371 99.2779 94.371H98.9885C95.1898 94.371 92.0968 97.4625 92.0968 101.263C92.0968 103.314 93.0011 105.243 94.5766 106.557L103.048 113.618L111.52 106.557C113.096 105.244 114 103.314 114 101.263C114 97.4625 110.907 94.371 107.108 94.371ZM109.516 104.154L103.048 109.544L96.5807 104.154C95.7187 103.436 95.2258 102.383 95.2258 101.263C95.2258 99.1881 96.9139 97.5 98.9885 97.5H99.2779C100.268 97.5 101.237 97.9021 102.042 98.6984L103.15 99.6137L104.161 98.603C104.86 97.9021 105.829 97.5 106.819 97.5H107.108C109.183 97.5 110.871 99.1881 110.871 101.263C110.871 102.383 110.378 103.436 109.516 104.154Z" fill="#FE0E0E"/>
<path d="M91.4632 114.71H91.1738C89.7923 114.71 88.4718 115.113 87.3954 115.825C86.2846 115.099 84.9892 114.71 83.6328 114.71H83.3434C79.5447 114.71 76.4517 117.801 76.4517 121.601C76.4517 123.652 77.3559 125.581 78.9314 126.896L87.4033 133.956L95.8751 126.896C97.4506 125.583 98.3549 123.652 98.3549 121.601C98.3549 117.801 95.2618 114.71 91.4632 114.71ZM93.871 124.493L87.4033 129.882L80.9356 124.493C80.0735 123.774 79.5807 122.722 79.5807 121.601C79.5807 119.527 81.2688 117.839 83.3434 117.839H83.6328C84.6231 117.839 85.5916 118.241 86.3973 119.037L87.505 119.952L88.5156 118.942C89.215 118.241 90.1834 117.839 91.1738 117.839H91.4632C93.5377 117.839 95.2259 119.527 95.2259 121.601C95.2259 122.722 94.733 123.774 93.871 124.493Z" fill="#FE0E0E"/>
</svg>
