<svg width="100" height="100" viewBox="0 0 100 100" fill="none" xmlns="http://www.w3.org/2000/svg">
<circle cx="50" cy="50" r="50" fill="#FE0E0E" fill-opacity="0.26"/>
<path d="M74.0551 62.1421C72.9732 54.0273 68.6199 46.5534 62.1054 41.5992V36.0273C62.1054 26.3833 58.3491 17.3169 51.5303 10.4968L51.4117 10.3781C50.9075 9.87395 50.0925 9.87395 49.5883 10.3781L49.4697 10.4968C42.6509 17.3156 38.8946 26.3833 38.8946 36.0273V41.5992C32.3801 46.5534 28.0268 54.0273 26.9449 62.1421L26.0113 69.1466C25.9301 69.7578 26.2924 70.3419 26.8766 70.5392C27.0133 70.5843 27.1525 70.6063 27.2892 70.6063C27.7418 70.6063 28.1751 70.3664 28.4085 69.9563L29.7276 67.6469C31.6516 64.2813 35.088 62.0789 38.8946 61.6649V62.8693C38.8946 63.5811 39.4723 64.1588 40.1841 64.1588H41.4736V68.0273C41.4736 68.7391 42.0513 69.3168 42.7631 69.3168H49.2105V74.4747H51.7895V69.3168H58.2369C58.9487 69.3168 59.5264 68.7391 59.5264 68.0273V64.1588H60.8159C61.5277 64.1588 62.1054 63.5811 62.1054 62.8693V61.6662C65.912 62.0789 69.3484 64.2826 71.2724 67.6482L72.5915 69.9576C72.8262 70.3664 73.2582 70.6063 73.7108 70.6063C73.8475 70.6063 73.9867 70.5843 74.1234 70.5379C74.7076 70.3406 75.0699 69.7578 74.9887 69.1453L74.0551 62.1421ZM50.5 13.1402C53.2092 16.0364 55.342 19.3362 56.8572 22.8952H44.1428C45.658 19.3362 47.7908 16.0364 50.5 13.1402ZM29.3202 63.8377L29.5007 62.4825C30.402 55.7178 33.7986 49.4548 38.8946 44.957V59.0692C35.2028 59.3993 31.7779 61.1156 29.3202 63.8377ZM56.9474 66.7378H44.0526V64.1588H56.9474V66.7378ZM59.5264 61.5798H41.4736V36.0273C41.4736 32.3858 42.0564 28.8346 43.1667 25.4742H57.8346C58.9436 28.8346 59.5264 32.3858 59.5264 36.0273V61.5798ZM62.1054 59.0705V44.957C67.2015 49.4561 70.5967 55.7191 71.4993 62.4825L71.6798 63.8377C69.2221 61.1156 65.7972 59.3993 62.1054 59.0705Z" fill="#FE0E0E"/>
<path d="M50.5002 33.2111C46.2333 33.2111 42.7633 36.6811 42.7633 40.948C42.7633 45.215 46.2333 48.685 50.5002 48.685C54.7671 48.685 58.2372 45.215 58.2372 40.948C58.2372 36.6811 54.7671 33.2111 50.5002 33.2111ZM50.5002 46.106C47.6556 46.106 45.3423 43.7927 45.3423 40.948C45.3423 38.1034 47.6556 35.7901 50.5002 35.7901C53.3448 35.7901 55.6582 38.1034 55.6582 40.948C55.6582 43.7927 53.3448 46.106 50.5002 46.106Z" fill="#FE0E0E"/>
<path d="M56.7311 71.1801L54.5854 72.6102L55.9561 74.6669C56.6047 75.6405 56.9477 76.7727 56.9477 77.9422C56.9477 79.5193 56.3339 81.0022 55.2185 82.1176L50.5003 86.8358L45.7821 82.1176C44.6666 81.0022 44.0529 79.5193 44.0529 77.9422C44.0529 76.7727 44.3959 75.6405 45.0445 74.6669L46.4152 72.6102L44.2695 71.1801L42.8988 73.2369C41.9665 74.6347 41.4739 76.262 41.4739 77.9422C41.4739 80.2078 42.3559 82.3394 43.9587 83.9409L49.5886 89.5708C49.8401 89.8223 50.1702 89.9486 50.5003 89.9486C50.8304 89.9486 51.1605 89.8223 51.412 89.5708L57.0419 83.9409C58.6447 82.3394 59.5267 80.2078 59.5267 77.9422C59.5267 76.262 59.0341 74.6347 58.1018 73.2369L56.7311 71.1801Z" fill="#FE0E0E"/>
</svg>
