<svg width="131" height="196" viewBox="0 0 131 196" fill="none" xmlns="http://www.w3.org/2000/svg">
<rect width="131" height="196" fill="#BB6BD9" fill-opacity="0.26"/>
<path d="M113.02 95.52H106.979C106.779 91.3026 105.955 87.2535 104.585 83.4539L110.161 81.1432C111.171 80.7254 111.65 79.5671 111.232 78.5554C110.814 77.5436 109.65 77.0684 108.644 77.4842L103.067 79.7948C101.292 76.0447 98.9818 72.6114 96.2197 69.5761L100.5 65.2953C101.275 64.5211 101.275 63.2678 100.5 62.4956C99.7263 61.7214 98.4749 61.7214 97.7007 62.4956L93.42 66.7763C90.3866 64.0162 86.9513 61.7036 83.2032 59.9295L85.5138 54.3499C85.9316 53.3401 85.4525 52.1818 84.4427 51.764C83.4388 51.3482 82.2726 51.8234 81.8548 52.8371L79.5461 58.4108C75.7465 57.0407 71.6974 56.217 67.478 56.017V49.98C67.478 48.887 66.591 48 65.498 48C64.4051 48 63.518 48.887 63.518 49.98V56.021C59.3006 56.221 55.2515 57.0446 51.4519 58.4148L49.1452 52.8391C48.7274 51.8273 47.5691 51.3502 46.5593 51.766C45.5475 52.1837 45.0684 53.342 45.4862 54.3518L47.7968 59.9295C44.0467 61.7036 40.6134 64.0162 37.578 66.7763L33.2973 62.4956C32.5231 61.7214 31.2717 61.7214 30.4976 62.4956C29.7234 63.2698 29.7234 64.5211 30.4976 65.2953L34.7783 69.5761C32.0182 72.6114 29.7056 76.0447 27.9315 79.7948L22.3558 77.4842C21.346 77.0664 20.1877 77.5436 19.7679 78.5554C19.3502 79.5652 19.8293 80.7235 20.8391 81.1432L26.4128 83.4539C25.0427 87.2535 24.219 91.3006 24.019 95.52H17.98C16.887 95.52 16 96.407 16 97.5C16 98.593 16.887 99.48 17.98 99.48H24.021C24.221 103.699 25.0446 107.748 26.4148 111.55L20.8411 113.857C19.8313 114.275 19.3502 115.433 19.7679 116.445C20.0828 117.207 20.8213 117.666 21.5975 117.666C21.8489 117.666 22.1063 117.619 22.3538 117.516L27.9335 115.205C29.7075 118.955 32.0182 122.389 34.7783 125.422L30.4976 129.703C29.7234 130.477 29.7234 131.728 30.4976 132.502C30.8837 132.889 31.3905 133.083 31.8974 133.083C32.4043 133.083 32.9112 132.889 33.2973 132.502L37.578 128.222C40.6134 130.984 44.0487 133.294 47.7968 135.069L45.4862 140.646C45.0684 141.658 45.5475 142.816 46.5573 143.234C46.8048 143.337 47.0622 143.385 47.3137 143.385C48.0918 143.385 48.8284 142.925 49.1432 142.163L51.4519 136.587C55.2515 137.957 59.2986 138.781 63.518 138.981V145.02C63.518 146.115 64.4051 147 65.498 147C66.591 147 67.478 146.115 67.478 145.02V138.979C71.6974 138.779 75.7445 137.955 79.5461 136.585L81.8548 142.159C82.1696 142.921 82.9082 143.381 83.6843 143.381C83.9378 143.381 84.1952 143.333 84.4427 143.23C85.4525 142.812 85.9316 141.654 85.5138 140.642L83.2032 135.065C86.9533 133.29 90.3866 130.98 93.42 128.22L97.7007 132.5C98.0868 132.887 98.5937 133.081 99.1006 133.081C99.6075 133.081 100.114 132.887 100.5 132.5C101.275 131.726 101.275 130.475 100.5 129.701L96.2197 125.42C98.9798 122.387 101.292 118.951 103.065 115.203L108.644 117.512C108.892 117.615 109.149 117.662 109.403 117.662C110.181 117.662 110.917 117.203 111.232 116.441C111.65 115.429 111.171 114.271 110.161 113.853L104.585 111.544C105.955 107.745 106.779 103.697 106.979 99.478H113.02C114.115 99.478 115 98.591 115 97.498C115 96.4051 114.115 95.52 113.02 95.52ZM65.5 135.12C44.7555 135.12 27.88 118.244 27.88 97.5C27.88 76.7555 44.7555 59.88 65.5 59.88C86.2445 59.88 103.12 76.7555 103.12 97.5C103.12 118.244 86.2445 135.12 65.5 135.12Z" fill="#BB6BD9"/>
<path d="M65.4999 91.56C70.9588 91.56 75.3999 87.1189 75.3999 81.66C75.3999 76.2011 70.9588 71.76 65.4999 71.76C60.0411 71.76 55.5999 76.2011 55.5999 81.66C55.5999 87.1189 60.0411 91.56 65.4999 91.56ZM65.4999 75.72C68.7748 75.72 71.4399 78.3851 71.4399 81.66C71.4399 84.9349 68.7748 87.6 65.4999 87.6C62.225 87.6 59.5599 84.9349 59.5599 81.66C59.5599 78.3851 62.225 75.72 65.4999 75.72Z" fill="#BB6BD9"/>
<path d="M73.42 95.5201H57.58C52.1211 95.5201 47.68 99.9612 47.68 105.42V117.3C47.68 118.395 48.567 119.28 49.66 119.28C50.753 119.28 51.64 118.395 51.64 117.3V105.42C51.64 102.145 54.3051 99.4801 57.58 99.4801H73.42C76.6949 99.4801 79.36 102.145 79.36 105.42V117.3C79.36 118.395 80.2451 119.28 81.34 119.28C82.4349 119.28 83.32 118.395 83.32 117.3V105.42C83.32 99.9612 78.8789 95.5201 73.42 95.5201Z" fill="#BB6BD9"/>
</svg>
