<svg xmlns="http://www.w3.org/2000/svg" viewBox="0 0 1005.15 390.25"><defs><style>.cls-1,.cls-2{fill:none;stroke-miterlimit:10;stroke-width:10.31px;}.cls-1{stroke:#3887f6;}.cls-2{stroke:#5051db;}.cls-3{fill:#5051db;}</style></defs><title>Asset 11</title><g id="Layer_2" data-name="Layer 2"><g id="Layer_1-2" data-name="Layer 1"><path class="cls-1" d="M166.75,196.24c0,.5,0,1,0,1.48s-.05.82-.08,1.23a1.09,1.09,0,0,0,0,.18l-.12,1.23c0,.3-.06.6-.1.9a.43.43,0,0,1,0,.12c0,.18,0,.36-.06.55,0,.34-.09.69-.15,1v0c-.06.39-.13.78-.2,1.16s-.17,1-.27,1.42l-.23,1.09c-.18.8-.39,1.59-.61,2.37l-.12.45c-.1.35-.2.69-.31,1s-.19.6-.29.9v0c-.08.27-.18.52-.26.77s-.19.55-.29.81-.28.75-.42,1.11-.31.76-.47,1.14-.27.63-.41.93-.16.38-.25.57q-1,2.19-2.21,4.28c-.2.33-.39.67-.6,1s-.34.56-.52.84c-.07.11-.14.23-.22.34-.2.32-.4.63-.61.93l-.57.82-.24.34c-.21.29-.42.59-.65.88-.38.52-.78,1-1.19,1.54-.15.19-.31.39-.48.58l0,0c-.45.54-.91,1.07-1.37,1.58l-.25.27c-.23.26-.47.52-.71.77-.62.65-1.25,1.27-1.9,1.89-.19.19-.38.36-.58.54l-1.14,1-.74.63c-.4.33-.79.65-1.2,1l-1,.76-1.18.86-.87.6-.86.57c-.73.48-1.48.93-2.22,1.36-.3.17-.6.35-.91.51s-.36.21-.55.3c-.52.29-1.06.55-1.6.82l-.63.31-.75.35-.56.25c-.65.29-1.31.57-2,.83l-1.16.44-1,.35-.51.17-.93.3-1,.29-.09,0-.5.15-.92.24c-.23.06-.47.13-.7.17l-.26.07-.64.15c-.62.14-1.26.26-1.89.38l-.6.11c-.64.11-1.29.21-1.94.3l-.76.1-1,.1-1.1.1-.52,0c-.66.06-1.32.09-2,.11h-.5l-1.17,0-1.17,0H113c-.67,0-1.33,0-2-.11l-.52,0-1.08-.1-1-.1-.76-.1c-.66-.09-1.3-.19-1.94-.3l-.6-.11c-.64-.12-1.27-.24-1.89-.38l-.64-.15-.26-.07c-.24,0-.47-.11-.7-.17l-.92-.24-.5-.15-.09,0-1-.29-.93-.3-.51-.17-1-.35-1.16-.44c-.67-.26-1.33-.54-2-.83l-.55-.25-.75-.35c-.22-.1-.43-.2-.63-.31-.55-.27-1.08-.53-1.6-.82-.19-.09-.37-.2-.55-.3s-.61-.34-.91-.51c-.75-.43-1.49-.88-2.22-1.36l-.86-.57-.87-.6c-.4-.28-.79-.57-1.18-.86s-.66-.5-1-.76-.8-.63-1.19-1l-.74-.63c-.39-.33-.77-.68-1.15-1-.19-.18-.38-.35-.57-.54-.65-.62-1.29-1.24-1.9-1.89l-.72-.77c-.08-.09-.17-.18-.24-.27-.47-.51-.93-1-1.38-1.58l0,0-.47-.58c-.42-.5-.81-1-1.2-1.54l-.65-.88L72,225c-.2-.27-.38-.54-.57-.82s-.41-.61-.62-.93l-.22-.34c-.17-.28-.34-.56-.52-.84l-.59-1q-1.2-2.08-2.22-4.28l-.25-.57c-.14-.3-.27-.62-.41-.93s-.31-.75-.46-1.14-.29-.73-.42-1.11-.2-.53-.28-.81-.19-.5-.27-.77v0c-.1-.3-.21-.6-.29-.9s-.22-.69-.31-1c-.05-.15-.09-.3-.13-.45q-.33-1.17-.6-2.37l-.24-1.09c-.09-.47-.19-.94-.27-1.42s-.13-.77-.2-1.16v0l-.15-1-.06-.55a.45.45,0,0,1,0-.12c0-.3-.08-.6-.11-.9s-.08-.82-.11-1.23a1.09,1.09,0,0,0,0-.18c0-.41-.06-.82-.08-1.23s0-1,0-1.48,0-.81,0-1.21V142.9H10.37V195c0,.56,0,1.12,0,1.68s0,1.29,0,1.93l.05,1.32c0,.06,0,.13,0,.19s0,.38,0,.57c0,.5.05,1,.09,1.49s.09,1.18.14,1.77.08,1,.13,1.47c.07.7.15,1.41.24,2.12s.13,1.12.21,1.68.15,1.06.23,1.58a.88.88,0,0,1,0,.16c.08.51.16,1,.26,1.53.11.76.26,1.53.41,2.28.08.45.17.91.26,1.35s.23,1.14.37,1.71v0c.12.54.25,1.09.38,1.64a0,0,0,0,0,0,0c.14.56.27,1.11.41,1.66s.32,1.18.47,1.76l.45,1.57a1.72,1.72,0,0,1,.07.21c.14.48.29,1,.44,1.43s.34,1.1.53,1.64.38,1.18.6,1.77.34,1,.52,1.46.37,1,.56,1.48l0,.12.63,1.58c.42,1,.86,2,1.31,3.06a1,1,0,0,0,.06.16c.22.49.44,1,.67,1.46s.49,1.05.74,1.57l.62,1.24c.32.65.66,1.3,1,1.94.2.4.42.79.64,1.19s.57,1.06.87,1.58.52.9.78,1.35c.08.14.16.27.25.4.23.39.45.78.69,1.16s.63,1,1,1.53.52.82.79,1.23a.56.56,0,0,0,.05.08c.28.42.55.84.84,1.26.57.86,1.16,1.7,1.77,2.53.19.27.38.53.58.79.56.78,1.15,1.55,1.75,2.31.33.43.66.85,1,1.26s.55.69.84,1,.45.54.68.81c.51.62,1,1.22,1.55,1.81s1,1.17,1.58,1.74c.38.41.75.81,1.14,1.21.11.13.24.26.37.39.3.31.59.62.9.92l.67.68c.85.84,1.7,1.67,2.57,2.47l1.2,1.1.91.81c.26.24.52.46.78.68s.48.42.73.62c.89.76,1.79,1.5,2.71,2.22.35.27.69.56,1,.82l.46.36.73.54,1,.75c1.16.86,2.35,1.68,3.55,2.48l.91.61.8.52.78.49.75.48c.3.17.59.35.88.53l1.59.93c.72.42,1.45.83,2.2,1.23.27.16.56.32.85.47.54.29,1.09.58,1.63.85s1,.51,1.49.75l1.4.68,1.3.6,1.46.65.11.05,1.45.62s0,0,.08,0c.46.2.94.39,1.41.58a2.07,2.07,0,0,0,.2.08l1.27.5.5.18c.29.12.58.23.88.33l1.28.46,0,0,1.54.53.26.08,1,.34.8.24,1.07.32.51.16c.47.14.94.28,1.42.4l.21.06c.55.16,1.12.31,1.68.45s1,.27,1.57.39l1.58.37,1.58.34.94.19,1.29.25c.45.09.91.16,1.38.24.22,0,.44.08.66.11l1.17.19.37.06c.39.06.78.12,1.18.16.25.05.5.08.76.11l.56.07,1.38.16,1.41.15c.47.06.95.09,1.42.13s.82.07,1.23.09.58.05.87.06c.47,0,.93.07,1.41.08s.78,0,1.19.06c1.36,0,2.73.08,4.12.08s2.75,0,4.12-.08c.4,0,.79,0,1.19-.06s.94,0,1.4-.08c.29,0,.59,0,.87-.06s.82,0,1.23-.09,1-.07,1.43-.13l1.41-.15,1.38-.16.56-.07c.25,0,.5-.06.76-.11s.78-.1,1.18-.16l.36-.06,1.18-.19c.22,0,.44-.06.66-.11l1.38-.24,1.28-.25.94-.19,1.59-.34,1.58-.37,1.57-.39q.84-.21,1.68-.45l.21-.06c.47-.12.94-.26,1.42-.4l.51-.16,1.06-.32.8-.24,1-.34.25-.08,1.55-.53,0,0,1.29-.46c.29-.1.59-.21.88-.33l.49-.18c.44-.16.86-.33,1.28-.5l.2-.08,1.41-.58.08,0,1.45-.62a.46.46,0,0,0,.1-.05c.5-.21,1-.43,1.47-.65l1.3-.6,1.39-.68c.5-.24,1-.49,1.49-.75s1.09-.56,1.64-.85l.85-.47c.74-.4,1.48-.81,2.2-1.23V195C166.77,195.44,166.77,195.84,166.75,196.24Z"/><path class="cls-2" d="M218.92,324.73V64.41a35.36,35.36,0,1,0-52.14,0V324.73a35.82,35.82,0,1,0,52.14,0Zm-26.07-296a11.79,11.79,0,1,1-11.79,11.79A11.79,11.79,0,0,1,192.85,28.73Zm0,332.49a11.94,11.94,0,1,1,11.94-11.94A11.95,11.95,0,0,1,192.85,361.22Z"/><rect class="cls-2" x="5.15" y="64.69" width="62.56" height="62.56" transform="translate(132.41 59.54) rotate(90)"/><path class="cls-3" d="M339.77,108.36v85.7q0,18.08,8.85,26.82t24.58,8.74q15.54,0,24.39-8.74t8.84-26.82v-85.7h17.68v85.5q0,16.9-6.8,28.47A42.72,42.72,0,0,1,399,239.53a62.5,62.5,0,0,1-51.89,0,42.13,42.13,0,0,1-18.27-17.2q-6.71-11.55-6.7-28.47v-85.5Z"/><path class="cls-3" d="M487,141.69q10.39-6.13,24.19-6.13a49.79,49.79,0,0,1,25.75,6.81,47.91,47.91,0,0,1,18.17,19.14q6.6,12.35,6.61,28.66,0,16.14-6.61,28.76a48.42,48.42,0,0,1-43.92,26.62,46.42,46.42,0,0,1-24-6.12,43.78,43.78,0,0,1-15.84-15.25v70.15H453.65v-157h17.68v19.63A42.19,42.19,0,0,1,487,141.69Zm51.79,27.49a33.74,33.74,0,0,0-13.12-13.6,36.31,36.31,0,0,0-18.17-4.66,35.33,35.33,0,0,0-18,4.76,34.8,34.8,0,0,0-13.21,13.79,46.89,46.89,0,0,0,0,42,34.89,34.89,0,0,0,13.21,13.8,36.7,36.7,0,0,0,36.15,0,34.28,34.28,0,0,0,13.12-13.8q4.85-9,4.85-21.28Q543.62,178.13,538.77,169.18Z"/><path class="cls-3" d="M606.59,151.89v62.77q0,7.77,3.3,11t11.47,3.2h13v15H618.44q-14.78,0-22.15-6.81t-7.39-22.34V151.89H575.11V137.31H588.9V110.5h17.69v26.81h27.79v14.58Z"/><path class="cls-3" d="M656.34,116.52a12.05,12.05,0,0,1,8.54-20.6,11.09,11.09,0,0,1,8.26,3.5,12.45,12.45,0,0,1,0,17.1,11.09,11.09,0,0,1-8.26,3.5A11.63,11.63,0,0,1,656.34,116.52Zm17.1,20.79v106.5H655.75V137.31Z"/><path class="cls-3" d="M853.77,140.52A37.12,37.12,0,0,1,869.12,156q5.64,10.31,5.64,25.07v62.77H857.27V183.56q0-15.93-7.87-24.39t-21.28-8.45q-13.8,0-22,8.84T798,185.12v58.69H780.51V183.56q0-15.93-7.87-24.39t-21.28-8.45q-13.8,0-22,8.84t-8.16,25.56v58.69H703.55V137.31h17.69v15.35a35,35,0,0,1,14.09-12.82,42.63,42.63,0,0,1,19.53-4.47,46.16,46.16,0,0,1,23.71,6,36.8,36.8,0,0,1,15.35,17.69,35,35,0,0,1,14.77-17.49,43.43,43.43,0,0,1,22.93-6.22A46.61,46.61,0,0,1,853.77,140.52Z"/><path class="cls-3" d="M903.71,161.51a48,48,0,0,1,18.17-19.14,49.79,49.79,0,0,1,25.75-6.81q14,0,24.29,6a40.17,40.17,0,0,1,15.36,15.16V137.31h17.87v106.5H987.28V224a41.69,41.69,0,0,1-15.65,15.45q-10.39,6.12-24.19,6.12a48.28,48.28,0,0,1-25.65-7,49.13,49.13,0,0,1-18.08-19.63q-6.6-12.63-6.6-28.76Q897.11,173.85,903.71,161.51Zm78.71,7.87a34.26,34.26,0,0,0-13.12-13.7,37.21,37.21,0,0,0-36.24-.1,33.84,33.84,0,0,0-13,13.6q-4.86,8.94-4.86,21,0,12.24,4.86,21.28a34.39,34.39,0,0,0,13,13.8A35.23,35.23,0,0,0,951.13,230a35.78,35.78,0,0,0,18.17-4.76,34.22,34.22,0,0,0,13.12-13.8,43.84,43.84,0,0,0,4.86-21.09Q987.28,178.32,982.42,169.38Z"/></g></g></svg>