<svg width="100" height="100" viewBox="0 0 100 100" fill="none" xmlns="http://www.w3.org/2000/svg">
<path d="M50.0731 20C57.6875 20 63.8376 26.1501 63.8376 33.9109C63.8376 41.5254 57.6875 47.6755 50.0731 47.6755C42.3123 47.6755 36.1622 41.5254 36.1622 33.9109C36.1622 26.1501 42.3123 20 50.0731 20ZM50.0731 22.9286C43.923 22.9286 39.0908 27.7608 39.0908 33.9109C39.0908 39.9146 43.923 44.7468 50.0731 44.7468C56.0768 44.7468 60.909 39.9146 60.909 33.9109C60.909 27.7608 56.0768 22.9286 50.0731 22.9286Z" fill="#140FF5"/>
<path d="M32.2087 68.9079C32.2087 69.6401 31.4765 70.2258 30.5979 70.0794C29.8658 70.0794 29.28 69.3472 29.4265 68.4686C30.5979 58.072 39.3838 50.0183 50.0732 50.0183C60.6163 50.0183 69.5486 58.072 70.72 68.4686C70.72 69.3472 70.1343 70.0794 69.4021 70.0794C68.5236 70.2258 67.7914 69.6401 67.7914 68.9079C66.7664 59.8292 59.152 52.947 50.0732 52.947C40.9945 52.947 33.2337 59.8292 32.2087 68.9079Z" fill="#140FF5"/>
<path d="M77.1628 31.8609C83.1665 31.8609 87.9987 36.6931 87.9987 42.5504C87.9987 48.554 83.1665 53.3863 77.1628 53.3863C71.3056 53.3863 66.4734 48.554 66.4734 42.5504C66.4734 36.6931 71.3056 31.8609 77.1628 31.8609ZM77.1628 34.7895C72.9163 34.7895 69.402 38.3039 69.402 42.5504C69.402 46.9433 72.9163 50.4576 77.1628 50.4576C81.5557 50.4576 85.0701 46.9433 85.0701 42.5504C85.0701 38.3039 81.5557 34.7895 77.1628 34.7895Z" fill="#140FF5"/>
<path d="M71.3056 59.2435C70.5735 59.6828 69.6949 59.3899 69.2556 58.6578C68.9627 57.9256 69.2556 57.0471 69.9878 56.6078C72.1842 55.5827 74.6735 54.8506 77.1629 54.8506C85.0701 54.8506 91.806 60.7078 92.9774 68.4687C93.1238 69.2008 92.5381 70.0794 91.806 70.0794C90.9274 70.2258 90.1952 69.6401 90.0488 68.908C89.1702 62.465 83.6058 57.7792 77.1629 57.7792C75.1128 57.7792 73.0628 58.3649 71.3056 59.2435Z" fill="#140FF5"/>
<path d="M22.837 31.8609C28.6942 31.8609 33.5265 36.6931 33.5265 42.5504C33.5265 48.554 28.6942 53.3863 22.837 53.3863C16.8333 53.3863 12.0011 48.554 12.0011 42.5504C12.0011 36.6931 16.8333 31.8609 22.837 31.8609ZM22.837 34.7895C18.4441 34.7895 14.9297 38.3039 14.9297 42.5504C14.9297 46.9433 18.4441 50.4576 22.837 50.4576C27.0835 50.4576 30.5978 46.9433 30.5978 42.5504C30.5978 38.3039 27.0835 34.7895 22.837 34.7895Z" fill="#140FF5"/>
<path d="M9.95104 68.908C9.80461 69.6401 9.07246 70.2258 8.3403 70.0794C7.46172 70.0794 6.87599 69.2008 7.02242 68.4687C8.19387 60.7078 14.9297 54.8506 22.837 54.8506C25.3263 54.8506 27.8156 55.5827 30.1585 56.6078C30.7442 57.0471 31.0371 57.9256 30.7442 58.6578C30.305 59.3899 29.4264 59.6828 28.6942 59.2435C26.937 58.3649 24.887 57.7792 22.837 57.7792C16.394 57.7792 10.8296 62.465 9.95104 68.908Z" fill="#140FF5"/>
<circle cx="50" cy="50" r="50" fill="#140FF5" fill-opacity="0.26"/>
</svg>
