<svg xmlns="http://www.w3.org/2000/svg" viewBox="0 0 223.51 379.94"><defs><style>.cls-1{fill:#5051db;}.cls-2{fill:#3887f6;}</style></defs><title>Asset 12</title><g id="Layer_2" data-name="Layer 2"><g id="Layer_1-2" data-name="Layer 1"><path class="cls-1" d="M213.76,319.58V59.26a35.37,35.37,0,1,0-52.13,0V319.58a35.82,35.82,0,1,0,52.13,0Zm-26.06-296a11.79,11.79,0,1,1-11.79,11.79A11.78,11.78,0,0,1,187.7,23.58Zm0,332.48a11.94,11.94,0,1,1,11.93-11.93A11.93,11.93,0,0,1,187.7,356.06Z"/><path class="cls-2" d="M161.61,191.08c0,.51,0,1,0,1.49s0,.82-.08,1.23a1,1,0,0,0,0,.17l-.12,1.24c0,.3-.06.6-.1.9a.43.43,0,0,1,0,.12c0,.18,0,.36-.06.54,0,.35-.1.69-.15,1v0c-.06.39-.13.77-.2,1.16s-.17.94-.27,1.42l-.23,1.09c-.18.79-.39,1.59-.61,2.37l-.12.45c-.1.35-.2.69-.31,1s-.19.6-.29.9v0c-.08.27-.18.53-.26.78s-.19.54-.3.81-.27.74-.41,1.1-.31.76-.47,1.15-.27.62-.41.93-.16.38-.25.57q-1,2.19-2.21,4.27c-.2.33-.39.67-.6,1s-.34.56-.52.85l-.22.34c-.21.31-.4.63-.62.93l-.56.82-.24.33c-.21.3-.43.6-.65.89-.38.52-.78,1-1.2,1.54-.14.19-.3.38-.47.57l0,0c-.45.54-.91,1.06-1.37,1.58l-.25.26-.71.78c-.62.64-1.25,1.27-1.9,1.89l-.58.54c-.37.34-.76.68-1.14,1s-.49.43-.75.63-.78.65-1.19,1-.65.51-1,.75-.79.59-1.18.86l-.87.6-.86.58c-.74.47-1.48.92-2.23,1.35l-.9.52-.55.3-1.6.82c-.21.11-.42.2-.63.3l-.76.36-.55.24c-.65.3-1.31.57-2,.83-.37.16-.76.3-1.15.44l-1,.35-.51.17c-.31.11-.63.21-.94.3s-.64.2-1,.3l-.08,0-.5.14-.92.25-.7.17-.26.06-.64.15c-.63.14-1.26.27-1.9.39l-.59.1c-.64.12-1.29.21-1.94.3l-.76.1-1,.11-1.1.09-.52,0c-.66.06-1.33.09-2,.1l-.49,0h-2.34l-.5,0c-.67,0-1.33,0-2-.1l-.52,0-1.09-.09-1-.11-.75-.1c-.66-.09-1.3-.18-1.94-.3l-.6-.1q-1-.18-1.89-.39c-.22-.05-.43-.09-.64-.15a2,2,0,0,1-.26-.06l-.71-.17-.91-.25L95,240,95,240c-.33-.1-.65-.19-1-.3s-.63-.19-.93-.3l-.52-.17-1-.35c-.39-.14-.78-.28-1.16-.44-.67-.26-1.34-.53-2-.83l-.55-.24-.75-.36c-.22-.1-.43-.19-.63-.3-.55-.27-1.08-.54-1.6-.82l-.55-.3-.91-.52q-1.12-.65-2.22-1.35c-.3-.19-.58-.38-.87-.58s-.58-.39-.86-.6-.79-.56-1.18-.86-.66-.49-1-.75-.8-.63-1.19-1-.5-.41-.74-.63-.77-.67-1.15-1l-.57-.54c-.65-.62-1.29-1.25-1.9-1.89l-.72-.78-.25-.26c-.46-.52-.92-1-1.37-1.58l0,0-.47-.57c-.42-.51-.81-1-1.2-1.54l-.65-.89-.23-.33c-.2-.27-.38-.55-.57-.82s-.41-.62-.62-.93c-.07-.12-.15-.23-.22-.34-.17-.29-.35-.56-.52-.85l-.59-1q-1.2-2.08-2.22-4.27l-.25-.57-.41-.93c-.16-.39-.31-.76-.46-1.15s-.29-.73-.42-1.1-.2-.54-.29-.81-.19-.51-.26-.78c0,0,0,0,0,0-.1-.3-.21-.6-.29-.9s-.22-.68-.31-1c0-.15-.09-.3-.13-.45-.22-.78-.42-1.58-.6-2.37l-.24-1.09c-.1-.48-.19-.95-.27-1.42s-.13-.77-.2-1.16v0l-.15-1-.06-.54a.43.43,0,0,1,0-.12c0-.3-.07-.6-.1-.9s-.08-.82-.11-1.24c0-.05,0-.12,0-.17,0-.41-.06-.82-.08-1.23s0-1,0-1.49,0-.8,0-1.2V137.74H5.23v52.14c0,.56,0,1.12,0,1.68s0,1.28,0,1.92l0,1.33a1.15,1.15,0,0,1,0,.19c0,.19,0,.37,0,.56,0,.5,0,1,.09,1.49s.09,1.19.14,1.78.08,1,.13,1.47c.07.7.15,1.41.24,2.12s.13,1.12.21,1.68.15,1.05.23,1.57c0,.06,0,.11,0,.17.08.5.16,1,.26,1.52.11.77.26,1.53.41,2.29.07.45.17.91.26,1.35s.23,1.13.37,1.7v0c.12.55.25,1.1.38,1.64,0,0,0,0,0,0,.13.56.27,1.12.41,1.67s.32,1.17.47,1.76l.45,1.57a1.72,1.72,0,0,1,.07.21c.14.48.29.95.44,1.43s.34,1.09.53,1.64.38,1.17.6,1.76.34,1,.52,1.46.37,1,.56,1.48l0,.12.63,1.59c.42,1,.86,2,1.31,3.06a.64.64,0,0,0,.06.16c.22.48.44,1,.67,1.45s.49,1.05.74,1.57l.62,1.25c.32.65.66,1.29,1,1.94.2.39.41.79.64,1.18q.42.81.87,1.59c.25.45.52.9.78,1.35.08.13.16.27.25.4.22.39.45.77.69,1.15l.95,1.54c.26.41.52.82.8,1.23a.56.56,0,0,1,.05.08c.27.42.55.83.83,1.25.58.86,1.17,1.7,1.78,2.53l.57.79c.57.78,1.16,1.55,1.76,2.32.33.43.66.84,1,1.25s.55.7.84,1,.45.55.68.82c.51.61,1,1.21,1.55,1.8s1.05,1.17,1.58,1.75c.38.41.75.8,1.14,1.2.11.14.24.26.37.4l.89.91.68.69c.85.83,1.7,1.66,2.57,2.47l1.2,1.1c.3.27.6.54.91.8s.52.46.78.68.48.42.73.63c.89.75,1.79,1.49,2.71,2.22.35.27.69.55,1,.81l.46.36.73.55,1,.75c1.16.86,2.35,1.68,3.54,2.47.3.21.61.41.92.61l.8.52.78.49.75.48.88.53,1.58.93c.73.43,1.46.84,2.2,1.24.28.16.57.31.86.46.54.3,1.08.58,1.63.86l1.49.75,1.39.67c.44.21.87.41,1.31.6l1.46.66.11.05,1.45.62.08,0c.46.2.93.39,1.41.58l.19.07c.42.18.86.34,1.28.5l.5.19.87.32c.43.17.86.32,1.29.47h.05c.51.19,1,.37,1.54.53l.25.08,1,.34.8.25,1.07.32.51.16,1.42.4.21,0c.55.16,1.12.31,1.68.45l1.57.4,1.57.36,1.59.35.94.19,1.28.24c.46.1.92.17,1.38.25l.67.11,1.17.19L94,293c.4.06.79.13,1.19.17l.75.11.56.07,1.38.16,1.42.15c.47.05.95.09,1.42.12l1.23.1.87.06,1.41.08c.39,0,.78.05,1.19.05,1.36.06,2.73.08,4.12.08s2.75,0,4.12-.08c.4,0,.79,0,1.19-.05l1.4-.08.87-.06,1.23-.1c.48,0,1-.07,1.43-.12l1.41-.15,1.38-.16.56-.07.76-.11c.39,0,.78-.11,1.18-.17l.36-.05,1.18-.19.66-.11c.46-.08.92-.15,1.38-.25l1.28-.24.94-.19,1.59-.35c.53-.11,1.05-.24,1.57-.36l1.57-.4c.56-.14,1.13-.29,1.69-.45l.21,0,1.42-.4.51-.16,1.06-.32.8-.25,1-.34.25-.08c.51-.16,1-.34,1.55-.53h0c.44-.15.86-.3,1.29-.47l.88-.32.49-.19c.43-.16.86-.32,1.28-.5l.2-.07,1.41-.58.08,0,1.45-.62.1-.05,1.47-.66,1.3-.6,1.39-.67c.5-.25,1-.49,1.49-.75s1.09-.56,1.64-.86l.85-.46c.74-.4,1.48-.81,2.2-1.24V189.88C161.63,190.29,161.63,190.68,161.61,191.08Z"/><rect class="cls-1" y="59.54" width="62.56" height="62.56" transform="translate(122.1 59.54) rotate(90)"/></g></g></svg>