<svg width="60" height="60" viewBox="0 0 60 60" fill="none" xmlns="http://www.w3.org/2000/svg">
<circle cx="30" cy="30" r="30" fill="#5051DB" fill-opacity="0.04"/>
<circle cx="30" cy="30" r="29" stroke="#5051DB" stroke-opacity="0.08" stroke-width="2"/>
<g clip-path="url(#clip0_1683_15)">
<path d="M14.1581 13.2475C12.7272 13.5871 11.5854 14.6639 11.1519 16.0875C11.0001 16.5789 11.0001 16.5861 11.0001 29.4928C11.0001 43.6858 10.9712 42.7102 11.4481 43.6641C11.7661 44.2928 12.5466 45.066 13.1681 45.3768C14.1437 45.8682 12.9585 45.832 29.5001 45.832C46.0417 45.832 44.8566 45.8682 45.8321 45.3768C46.4536 45.066 47.2341 44.2928 47.5521 43.6641C48.029 42.7102 48.0001 43.6858 48.0001 29.4928C48.0001 16.5861 48.0001 16.5789 47.8484 16.0875C47.4654 14.8229 46.6488 13.9485 45.3624 13.4137L44.8566 13.2041L29.6446 13.1897C20.821 13.1897 14.3171 13.2113 14.1581 13.2475ZM44.712 14.5772C45.507 14.8229 46.2441 15.5166 46.562 16.326C46.721 16.7307 46.7282 16.8535 46.7571 19.2166L46.7861 21.6953H29.5001H12.2142L12.2431 19.2166C12.272 16.8535 12.2792 16.7307 12.4382 16.326C12.7489 15.5311 13.4354 14.8662 14.2159 14.5988C14.5483 14.4904 15.6179 14.476 29.464 14.476C42.5657 14.4688 44.3941 14.4832 44.712 14.5772ZM46.7716 32.2967C46.7716 37.442 46.7427 41.8069 46.7066 42.0526C46.5114 43.3678 45.507 44.3651 44.1989 44.5385C43.5486 44.618 15.4517 44.618 14.8013 44.5385C13.4933 44.3651 12.4888 43.3678 12.2936 42.0526C12.2575 41.8069 12.2286 37.442 12.2286 32.2967V22.9961H29.5001H46.7716V32.2967Z" fill="#5051DB"/>
<path d="M14.8518 16.2248C14.4109 16.391 13.999 16.7451 13.7822 17.1498C13.5943 17.4822 13.5654 17.6123 13.5654 18.082C13.5654 18.6529 13.7172 19.0721 14.0568 19.4406C14.5844 20.0115 15.5744 20.1994 16.2826 19.8742C17.0342 19.5273 17.4316 18.9059 17.4316 18.082C17.4244 17.316 17.0414 16.6728 16.3838 16.3332C16.0369 16.1525 15.1914 16.0875 14.8518 16.2248ZM15.943 17.6195C16.3477 18.0242 16.0658 18.7324 15.5021 18.7324C15.1697 18.7324 14.8301 18.4072 14.8301 18.082C14.8301 17.923 14.8951 17.7857 15.0396 17.6412C15.3215 17.3666 15.6756 17.3521 15.943 17.6195Z" fill="#5051DB"/>
<path d="M20.7705 16.2682C19.13 16.8319 19.0433 19.2094 20.6404 19.8959C21.5437 20.2862 22.6277 19.9537 23.1046 19.1371C23.755 18.0315 23.2203 16.5934 22.0279 16.2393C21.5581 16.0948 21.2402 16.1092 20.7705 16.2682ZM21.8544 17.6413C22.0423 17.8075 22.0857 17.9014 22.0785 18.1254C22.0568 18.8409 21.074 18.9854 20.821 18.3061C20.7271 18.0604 20.8716 17.6702 21.1029 17.5401C21.3992 17.3811 21.5943 17.41 21.8544 17.6413Z" fill="#5051DB"/>
<path d="M26.978 16.2104C26.0675 16.3838 25.4388 17.1643 25.4388 18.1182C25.4315 19.2239 26.2481 20.0621 27.3249 20.0621C27.9536 20.0621 28.3005 19.9393 28.7124 19.549C29.146 19.1444 29.3194 18.718 29.3122 18.0748C29.305 16.8608 28.1993 15.9719 26.978 16.2104ZM27.8163 17.6629C28.1776 17.9953 28.0548 18.5807 27.5995 18.7252C26.978 18.9348 26.4866 18.2555 26.8769 17.7352C27.1226 17.41 27.5056 17.3811 27.8163 17.6629Z" fill="#5051DB"/>
<path d="M30.2082 26.6166C30.1359 26.6528 30.0492 26.7467 30.0059 26.819C29.9047 27.0069 27.4766 38.5838 27.4766 38.8801C27.4766 39.4004 28.1197 39.6678 28.5172 39.3137C28.6906 39.1619 28.7918 38.7139 29.9336 33.3012C30.6057 30.0926 31.1621 27.3248 31.1621 27.1586C31.1621 26.9346 31.1188 26.8118 30.9959 26.6961C30.8152 26.5227 30.425 26.4866 30.2082 26.6166Z" fill="#5051DB"/>
<path d="M25.251 29.0592C25.1281 29.1459 24.1308 29.9697 23.0396 30.902C20.9078 32.723 20.8644 32.7809 21.1029 33.2289C21.233 33.4674 21.3775 33.5975 23.8201 35.6643C25.1715 36.8133 25.3521 36.9434 25.5906 36.9434C26.0242 36.9361 26.2988 36.6109 26.2193 36.1846C26.176 35.9822 25.9158 35.7221 24.456 34.4863C23.5166 33.6842 22.7361 32.9977 22.7217 32.9687C22.7144 32.9398 23.4299 32.2967 24.326 31.5379C25.2148 30.7791 26.0097 30.0709 26.0965 29.9625C26.2916 29.7096 26.2916 29.4133 26.0892 29.182C25.858 28.9219 25.5472 28.8785 25.251 29.0592Z" fill="#5051DB"/>
<path d="M33.1423 28.9942C32.7593 29.1459 32.6437 29.6301 32.9039 29.9625C32.9906 30.0709 33.7855 30.7791 34.6744 31.5379C35.5705 32.2967 36.2859 32.9398 36.2787 32.9688C36.2642 32.9977 35.4837 33.6842 34.5443 34.4863C33.0845 35.7221 32.8244 35.9822 32.781 36.1846C32.7015 36.6109 32.9761 36.9361 33.4097 36.9434C33.6482 36.9434 33.8289 36.8133 35.1802 35.6643C37.6228 33.5975 37.7673 33.4674 37.8974 33.2289C38.1359 32.7809 38.0925 32.7231 35.9607 30.902C34.8695 29.9697 33.8722 29.1459 33.7494 29.0664C33.4892 28.9074 33.3808 28.9002 33.1423 28.9942Z" fill="#5051DB"/>
</g>
<defs>
<clipPath id="clip0_1683_15">
<rect width="37" height="37" fill="white" transform="translate(11 11)"/>
</clipPath>
</defs>
</svg>
