<svg width="60" height="60" viewBox="0 0 60 60" fill="none" xmlns="http://www.w3.org/2000/svg">
<circle cx="30" cy="30" r="30" fill="#5051DB" fill-opacity="0.04"/>
<circle cx="30" cy="30" r="29" stroke="#5051DB" stroke-opacity="0.08" stroke-width="2"/>
<path d="M26.0625 25.6875L28.125 27.75L24 31.875L28.125 36L26.0625 38.0625L19.875 31.875L26.0625 25.6875ZM32.9375 38.0625L30.875 36L35 31.875L30.875 27.75L32.9375 25.6875L39.125 31.875L32.9375 38.0625ZM41.875 16.75H17.125C16.3957 16.75 15.6962 17.0397 15.1805 17.5555C14.6647 18.0712 14.375 18.7707 14.375 19.5V41.5C14.375 42.2293 14.6647 42.9288 15.1805 43.4445C15.6962 43.9603 16.3957 44.25 17.125 44.25H41.875C42.6043 44.25 43.3038 43.9603 43.8195 43.4445C44.3353 42.9288 44.625 42.2293 44.625 41.5V19.5C44.625 18.7707 44.3353 18.0712 43.8195 17.5555C43.3038 17.0397 42.6043 16.75 41.875 16.75ZM41.875 41.5H17.125V22.25H41.875V41.5Z" fill="#5051DB"/>
</svg>
