<svg width="60" height="60" viewBox="0 0 60 60" fill="none" xmlns="http://www.w3.org/2000/svg">
<circle cx="30" cy="30" r="30" fill="#5051DB" fill-opacity="0.04"/>
<circle cx="30" cy="30" r="29" stroke="#5051DB" stroke-opacity="0.08" stroke-width="2"/>
<path d="M16 29.05V24.7C16 27.89 21.3053 30.5 27.7895 30.5C34.2737 30.5 39.5789 27.89 39.5789 24.7V29.05C39.5789 29.775 39.2842 30.355 38.8421 31.08C37.6632 30.645 36.4842 30.5 35.1579 30.5C31.4737 30.5 27.9368 32.095 25.7263 34.705C20.1263 34.27 16 31.95 16 29.05ZM27.7895 27.6C34.2737 27.6 39.5789 24.99 39.5789 21.8C39.5789 18.61 34.2737 16 27.7895 16C21.3053 16 16 18.61 16 21.8C16 24.99 21.3053 27.6 27.7895 27.6ZM23.5158 40.215L23.0737 39.2L23.5158 38.185C23.6632 37.895 23.8105 37.75 23.8105 37.46C19.2421 36.59 16 34.56 16 31.95V36.3C16 38.91 19.5368 41.085 24.4 41.81C24.1053 41.375 23.8105 40.795 23.5158 40.215ZM35.1579 37.75C34.2737 37.75 33.6842 38.33 33.6842 39.2C33.6842 40.07 34.2737 40.65 35.1579 40.65C36.0421 40.65 36.6316 40.07 36.6316 39.2C36.6316 38.33 36.0421 37.75 35.1579 37.75ZM44 39.2C42.6737 42.535 39.1368 45 35.1579 45C31.1789 45 27.6421 42.535 26.3158 39.2C27.6421 35.865 31.1789 33.4 35.1579 33.4C39.1368 33.4 42.6737 35.865 44 39.2ZM38.8421 39.2C38.8421 37.17 37.2211 35.575 35.1579 35.575C33.0947 35.575 31.4737 37.17 31.4737 39.2C31.4737 41.23 33.0947 42.825 35.1579 42.825C37.2211 42.825 38.8421 41.23 38.8421 39.2Z" fill="#5051DB"/>
</svg>
