<svg width="60" height="60" viewBox="0 0 60 60" fill="none" xmlns="http://www.w3.org/2000/svg">
<circle cx="30" cy="30" r="30" fill="#5051DB" fill-opacity="0.04"/>
<circle cx="30" cy="30" r="29" stroke="#5051DB" stroke-opacity="0.08" stroke-width="2"/>
<path d="M42.9467 25.6133C44.6133 23.9467 43.8533 22 42.9467 21.0533L38.9467 17.0533C37.2667 15.3867 35.3333 16.1467 34.3867 17.0533L32.12 19.3333H28.6667C26.1333 19.3333 24.6667 20.6667 23.92 22.2L18 28.12V33.4533L17.0533 34.3867C15.3867 36.0667 16.1467 38 17.0533 38.9467L21.0533 42.9467C21.7733 43.6667 22.5467 43.9333 23.28 43.9333C24.2267 43.9333 25.0933 43.4667 25.6133 42.9467L29.2133 39.3333H34C36.2667 39.3333 37.4133 37.92 37.8267 36.5333C39.3333 36.1333 40.16 34.9867 40.4933 33.8667C42.56 33.3333 43.3333 31.3733 43.3333 30V26H42.5467L42.9467 25.6133ZM40.6667 30C40.6667 30.6 40.4133 31.3333 39.3333 31.3333H38V32.6667C38 33.2667 37.7467 34 36.6667 34H35.3333V35.3333C35.3333 35.9333 35.08 36.6667 34 36.6667H28.12L23.7467 41.04C23.3333 41.4267 23.0933 41.2 22.9467 41.0533L18.96 37.08C18.5733 36.6667 18.8 36.4267 18.9467 36.28L20.6667 34.5467V29.2133L23.3333 26.5467V28.6667C23.3333 30.28 24.4 32.6667 27.3333 32.6667C30.2667 32.6667 31.3333 30.28 31.3333 28.6667H40.6667V30ZM41.0533 23.72L38.7867 26H28.6667V28.6667C28.6667 29.2667 28.4133 30 27.3333 30C26.2533 30 26 29.2667 26 28.6667V24.6667C26 24.0533 26.2267 22 28.6667 22H33.2133L36.2533 18.96C36.6667 18.5733 36.9067 18.8 37.0533 18.9467L41.04 22.92C41.4267 23.3333 41.2 23.5733 41.0533 23.72Z" fill="#5051DB"/>
</svg>
