<svg width="60" height="60" viewBox="0 0 60 60" fill="none" xmlns="http://www.w3.org/2000/svg">
<circle cx="30" cy="30" r="30" fill="#5051DB" fill-opacity="0.04"/>
<circle cx="30" cy="30" r="29" stroke="#5051DB" stroke-opacity="0.08" stroke-width="2"/>
<path d="M17.5417 44.1667V30.5H12.4167L29.5 15.125L46.5833 30.5H41.4583V44.1667H17.5417ZM29.5 19.7204L20.9583 27.4079V40.75H38.0417V27.4079L29.5 19.7204ZM27.7917 39.0417V37.3333H31.2083V39.0417H27.7917ZM27.7917 35.625C27.3133 35.625 26.9375 35.2492 26.9375 34.7708V33.2333C25.4 32.345 24.375 30.6879 24.375 28.7917C24.375 25.9558 26.6642 23.6667 29.5 23.6667C32.3358 23.6667 34.625 25.9558 34.625 28.7917C34.625 30.6879 33.6 32.345 32.0625 33.2333V34.7708C32.0625 35.2492 31.6867 35.625 31.2083 35.625H27.7917Z" fill="#5051DB"/>
</svg>
