<svg width="60" height="60" viewBox="0 0 60 60" fill="none" xmlns="http://www.w3.org/2000/svg">
<circle cx="30" cy="30" r="30" fill="#5051DB" fill-opacity="0.04"/>
<circle cx="30" cy="30" r="29" stroke="#5051DB" stroke-opacity="0.08" stroke-width="2"/>
<g clip-path="url(#clip0_0_1)">
<path d="M20.3772 41.6463L26.9303 41.677L18.4797 27.017C17.9284 26.1113 17.6054 25.1078 17.6106 23.9929C17.6253 20.8742 20.1871 18.3601 23.3355 18.3748C25.9852 18.3872 28.2133 20.204 28.8288 22.6342L34.7123 22.6618L34.7289 19.1338C34.7361 17.5815 36.0242 16.3174 37.5913 16.3247L37.5742 19.9797L39.8498 17.7465L46.1322 17.776L46.119 20.5984L41.0047 20.5744L37.5555 23.9593L37.5543 24.2133L40.9717 27.6304L46.0859 27.6544L46.0727 30.4768L39.7903 30.4474L37.5357 28.1929L37.5186 31.8479C35.9515 31.8406 34.6753 30.5786 34.6826 29.0122L34.6991 25.4842L28.8156 25.4566C28.6705 26.0063 28.4402 26.5274 28.153 27.0059L36.6318 41.7224L43.1707 41.753C44.752 41.7605 46.0139 43.0365 46.0066 44.5888L46 46L17.5082 45.8665L17.5148 44.4553C17.5221 42.903 18.8102 41.6389 20.3772 41.6463ZM26.0068 28.9716C25.207 29.4194 24.2798 29.6691 23.2826 29.6644L30.2211 41.6924L33.341 41.707L26.0068 28.9716ZM23.3222 21.1972C21.7409 21.1898 20.4671 22.4539 20.4598 24.0063C20.4525 25.5727 21.7145 26.8346 23.2958 26.842C24.8771 26.8494 26.1509 25.5994 26.1582 24.033C26.1655 22.4806 24.9035 21.2046 23.3222 21.1972Z" fill="#5051DB"/>
</g>
<defs>
<clipPath id="clip0_0_1">
<rect width="31" height="31" fill="white" transform="translate(15 15)"/>
</clipPath>
</defs>
</svg>
