<svg width="60" height="60" viewBox="0 0 60 60" fill="none" xmlns="http://www.w3.org/2000/svg">
<circle cx="30" cy="30" r="30" fill="#5051DB" fill-opacity="0.04"/>
<circle cx="30" cy="30" r="29" stroke="#5051DB" stroke-opacity="0.08" stroke-width="2"/>
<path d="M22.8375 36.3125C23.4 36.975 23.75 37.8125 23.75 38.75C23.75 40.825 22.075 42.5 20 42.5C17.925 42.5 16.25 40.825 16.25 38.75C16.25 36.675 17.925 35 20 35C20.225 35 20.45 35 20.6625 35.0625L24.5 28.3625L22.325 27.125L27.4375 25.725L28.8375 30.8375L26.6625 29.6L22.8375 36.3125ZM40 35C38.375 35 37 36.05 36.475 37.5H28.75V35L25 38.75L28.75 42.5V40H36.475C37 41.45 38.375 42.5 40 42.5C42.075 42.5 43.75 40.825 43.75 38.75C43.75 36.675 42.075 35 40 35ZM30 25C30.225 25 30.45 25 30.6625 24.9375L34.5 31.6375L32.325 32.875L37.4375 34.275L38.8375 29.1625L36.6625 30.4L32.8375 23.6875C33.4 23.025 33.75 22.1875 33.75 21.25C33.75 19.175 32.075 17.5 30 17.5C27.925 17.5 26.25 19.175 26.25 21.25C26.25 23.325 27.925 25 30 25Z" fill="#5051DB"/>
</svg>
